<svg width="36" height="36" viewBox="0 0 36 36" fill="none" xmlns="http://www.w3.org/2000/svg">
<path d="M17.9388 1.25402C27.0921 1.25402 34.5123 8.8586 34.5123 18.2393C34.5123 27.62 27.0921 35.2246 17.9388 35.2246C8.78546 35.2246 1.36523 27.62 1.36523 18.2393C1.36523 8.8586 8.78545 1.25402 17.9388 1.25402Z" fill="#002471"/>
<path d="M14.4105 7.90619C15.5621 17.4352 17.8654 19.4873 17.8654 19.8097C18.6331 20.1935 16.9094 15.3827 17.0977 14.6256C17.2016 14.208 20.2967 15.2653 17.4201 13.2183C14.5436 11.1712 15.2108 9.82529 16.3299 9.82529C18.5013 9.82529 19.3799 10.5929 20.2967 10.5929C18.6554 9.50629 15.2641 7.6933 15.2108 6.82126C15.1443 5.73122 16.0086 5.60328 18.2991 6.58123C20.4717 7.50887 26.6333 9.508 20.6806 6.82126C15.9184 4.67187 16.2106 3.89445 17.3468 3.59593C17.3468 3.59593 17.3468 3.59593 18.1879 3.81212C24.0741 3.55624 29.4485 10.1477 30.1548 11.8723C30.8612 13.597 34.6949 30.3622 20.6806 32.4758C9.46915 34.1666 5.43101 24.7363 4.81337 19.8097C3.72314 10.6646 11.7898 1.12538 14.4105 7.90619Z" fill="white"/>
<path d="M17.9388 1.25402C27.0921 1.25402 34.5123 8.8586 34.5123 18.2393C34.5123 27.62 27.0921 35.2246 17.9388 35.2246C8.78546 35.2246 1.36523 27.62 1.36523 18.2393C1.36523 8.8586 8.78545 1.25402 17.9388 1.25402Z" stroke="#002471" stroke-width="1.02941" stroke-linecap="round" stroke-linejoin="round"/>
<path d="M14.4105 7.90619C15.5621 17.4352 17.8654 19.4873 17.8654 19.8097C18.6331 20.1935 16.9094 15.3827 17.0977 14.6256C17.2016 14.208 20.2967 15.2653 17.4201 13.2183C14.5436 11.1712 15.2108 9.82529 16.3299 9.82529C18.5013 9.82529 19.3799 10.5929 20.2967 10.5929C18.6554 9.50629 15.2641 7.6933 15.2108 6.82126C15.1443 5.73122 16.0086 5.60328 18.2991 6.58123C20.4717 7.50887 26.6333 9.508 20.6806 6.82126C15.9184 4.67187 16.2106 3.89445 17.3468 3.59593C17.3468 3.59593 17.3468 3.59593 18.1879 3.81212C24.0741 3.55624 29.4485 10.1477 30.1548 11.8723C30.8612 13.597 34.6949 30.3622 20.6806 32.4758C9.46915 34.1666 5.43101 24.7363 4.81337 19.8097C3.72314 10.6646 11.7898 1.12538 14.4105 7.90619Z" stroke="#002471" stroke-width="1.02941" stroke-linecap="round" stroke-linejoin="round"/>
</svg>
