<svg xmlns="http://www.w3.org/2000/svg" xmlns:xlink="http://www.w3.org/1999/xlink" version="1.1" width="42" height="42" viewBox="0 0 1000 1000" xml:space="preserve">
<desc>Created with Fabric.js 3.5.0</desc>
<defs>
</defs>
<rect x="0" y="0" width="100%" height="100%" fill="rgba(255,255,255,0)"/>
<g transform="matrix(0 -25.2525 25.2525 0 499.9995 500.0005)" id="857484">
<g style="" vector-effect="non-scaling-stroke">
		<g transform="matrix(1 0 0 1 -0.0613 0.2393)">
<path style="stroke: none; stroke-width: 1; stroke-dasharray: none; stroke-linecap: butt; stroke-dashoffset: 0; stroke-linejoin: miter; stroke-miterlimit: 4; is-custom-font: none; font-file-url: none; fill: rgb(184,116,198); fill-rule: nonzero; opacity: 1;" transform=" translate(-17.9388, -18.2393)" d="M 17.9388 1.25402 C 27.0921 1.25402 34.5123 8.8586 34.5123 18.2393 C 34.5123 27.62 27.0921 35.2246 17.9388 35.2246 C 8.78546 35.2246 1.36523 27.62 1.36523 18.2393 C 1.36523 8.8586 8.78545 1.25402 17.9388 1.25402 Z" stroke-linecap="round"/>
</g>
		<g transform="matrix(1 0 0 1 -0.0615 0.136)">
<path style="stroke: none; stroke-width: 1; stroke-dasharray: none; stroke-linecap: butt; stroke-dashoffset: 0; stroke-linejoin: miter; stroke-miterlimit: 4; is-custom-font: none; font-file-url: none; fill: rgb(255,255,255); fill-rule: nonzero; opacity: 1;" transform=" translate(-17.9385, -18.136)" d="M 14.4105 7.90619 C 15.5621 17.4352 17.8654 19.4873 17.8654 19.8097 C 18.6331 20.1935 16.9094 15.3827 17.0977 14.6256 C 17.2016 14.208 20.2967 15.2653 17.4201 13.2183 C 14.5436 11.1712 15.2108 9.82529 16.3299 9.82529 C 18.5013 9.82529 19.3799 10.5929 20.2967 10.5929 C 18.6554 9.50629 15.2641 7.6933 15.2108 6.82126 C 15.1443 5.73122 16.0086 5.60328 18.2991 6.58123 C 20.4717 7.50887 26.6333 9.508 20.6806 6.82126 C 15.9184 4.67187 16.2106 3.89445 17.3468 3.59593 C 17.3468 3.59593 17.3468 3.59593 18.1879 3.81212 C 24.0741 3.55624 29.4485 10.1477 30.1548 11.8723 C 30.8612 13.597 34.6949 30.3622 20.6806 32.4758 C 9.46915 34.1666 5.43101 24.7363 4.81337 19.8097 C 3.72314 10.6646 11.7898 1.12538 14.4105 7.90619 Z" stroke-linecap="round"/>
</g>
		<g transform="matrix(1 0 0 1 -0.0613 0.2393)">
<path style="stroke: rgb(184,116,198); stroke-width: 1.0294; stroke-dasharray: none; stroke-linecap: round; stroke-dashoffset: 0; stroke-linejoin: round; stroke-miterlimit: 4; is-custom-font: none; font-file-url: none; fill: none; fill-rule: nonzero; opacity: 1;" transform=" translate(-17.9388, -18.2393)" d="M 17.9388 1.25402 C 27.0921 1.25402 34.5123 8.8586 34.5123 18.2393 C 34.5123 27.62 27.0921 35.2246 17.9388 35.2246 C 8.78546 35.2246 1.36523 27.62 1.36523 18.2393 C 1.36523 8.8586 8.78545 1.25402 17.9388 1.25402 Z" stroke-linecap="round"/>
</g>
		<g transform="matrix(1 0 0 1 -0.0615 0.136)">
<path style="stroke: rgb(184,116,198); stroke-width: 1.0294; stroke-dasharray: none; stroke-linecap: round; stroke-dashoffset: 0; stroke-linejoin: round; stroke-miterlimit: 4; is-custom-font: none; font-file-url: none; fill: none; fill-rule: nonzero; opacity: 1;" transform=" translate(-17.9385, -18.136)" d="M 14.4105 7.90619 C 15.5621 17.4352 17.8654 19.4873 17.8654 19.8097 C 18.6331 20.1935 16.9094 15.3827 17.0977 14.6256 C 17.2016 14.208 20.2967 15.2653 17.4201 13.2183 C 14.5436 11.1712 15.2108 9.82529 16.3299 9.82529 C 18.5013 9.82529 19.3799 10.5929 20.2967 10.5929 C 18.6554 9.50629 15.2641 7.6933 15.2108 6.82126 C 15.1443 5.73122 16.0086 5.60328 18.2991 6.58123 C 20.4717 7.50887 26.6333 9.508 20.6806 6.82126 C 15.9184 4.67187 16.2106 3.89445 17.3468 3.59593 C 17.3468 3.59593 17.3468 3.59593 18.1879 3.81212 C 24.0741 3.55624 29.4485 10.1477 30.1548 11.8723 C 30.8612 13.597 34.6949 30.3622 20.6806 32.4758 C 9.46915 34.1666 5.43101 24.7363 4.81337 19.8097 C 3.72314 10.6646 11.7898 1.12538 14.4105 7.90619 Z" stroke-linecap="round"/>
</g>
</g>
</g>
</svg>