<svg width="36" height="31" viewBox="0 0 36 31" fill="none" xmlns="http://www.w3.org/2000/svg">
<rect x="12.2461" y="21.3887" width="8.55679" height="11.7859" transform="rotate(180 12.2461 21.3887)" fill="#002471"/>
<path d="M3.31359 22.6995C0.647771 20.2229 0.952505 16.9683 1.34325 15.7402L4.03858 15.7402C5.41051 15.7402 8.32904 19.6533 9.15521 21.6632C9.96518 23.6337 11.1851 28.321 8.0924 26.2019C4.99971 24.0828 5.31192 24.5559 3.31359 22.6995Z" fill="white" stroke="#002471" stroke-width="1.69"/>
<path d="M12.1062 15.4043L20.8387 15.4043L20.8847 29.7404L16.4846 29.7404C9.58024 28.8128 8.52822 26.2761 8.89872 21.7678C9.16435 16.2117 9.78307 15.4043 12.1062 15.4043Z" fill="white" stroke="#002471" stroke-width="1.69"/>
<path d="M31.9453 7.25168L31.9453 22.2646C32.9927 21.5509 35.0876 19.006 35.0876 14.537C35.0876 10.0681 32.9927 7.81806 31.9453 7.25168Z" fill="white" stroke="#002471" stroke-width="1.69"/>
<path d="M20.8867 29.7351L21.0372 15.3955L29.8275 15.3955C30.8985 15.3955 36.3966 21.6351 28.9892 26.9712C25.0602 29.8015 22.8962 29.5877 20.8867 29.7351Z" fill="white" stroke="#002471" stroke-width="1.69"/>
<path d="M3.26419 9.61658C0.578934 11.9924 0.977086 14.5621 1.37068 15.7402L4.16008 15.7402C5.54202 15.7402 8.31621 12.5388 9.14841 10.6106C9.96429 8.72031 11.1931 4.22383 8.07785 6.25667C4.96261 8.28951 5.27709 7.83567 3.26419 9.61658Z" fill="white" stroke="#002471" stroke-width="1.69"/>
<path d="M12.0676 15.5078L20.8002 15.5078L20.8461 1.17167L18.0065 1.41959C8.37875 4.74603 8.48963 4.63603 8.86014 9.14431C9.12577 14.7004 9.74448 15.5078 12.0676 15.5078Z" fill="white" stroke="#002471" stroke-width="1.69"/>
<path d="M20.8477 1.17699L20.9981 15.5166L29.7885 15.5166C30.8594 15.5166 36.3575 9.27706 28.9501 3.94091C25.0211 1.11056 22.8571 1.32441 20.8477 1.17699Z" fill="white" stroke="#002471" stroke-width="1.69"/>
</svg>
