<svg width="32" height="36" viewBox="0 0 32 36" fill="none" xmlns="http://www.w3.org/2000/svg">
<rect width="8.55679" height="11.7859" transform="matrix(0.5 0.866025 0.866025 -0.5 14.7402 25.9014)" fill="#B874C6"/>
<path d="M18.0732 34.2923C21.5508 35.3627 24.217 33.4715 25.0852 32.5191L23.7375 30.1849C23.0516 28.9967 18.2035 28.4257 16.0498 28.7152C13.9383 28.999 9.26906 30.2862 12.6506 31.905C16.0321 33.5238 15.4663 33.49 18.0732 34.2923Z" fill="white" stroke="#B874C6" stroke-width="1.69"/>
<path d="M19.9948 23.0305L15.6285 15.4678L3.19002 22.5961L5.39007 26.4067C9.64561 31.9222 12.3685 31.565 16.0875 28.9899C20.7664 25.9819 21.1563 25.0423 19.9948 23.0305Z" fill="white" stroke="#B874C6" stroke-width="1.69"/>
<path d="M17.1344 1.77281L4.13281 9.2793C4.22727 8.01531 5.38374 4.92871 9.25399 2.69422C13.1242 0.459736 16.1202 1.14891 17.1344 1.77281Z" fill="white" stroke="#B874C6" stroke-width="1.69"/>
<path d="M3.19286 22.5907L15.5361 15.2906L11.1409 7.67792C10.6054 6.75046 2.4528 5.10874 1.53527 14.1918C1.0486 19.0096 2.31578 20.7767 3.19286 22.5907Z" fill="white" stroke="#B874C6" stroke-width="1.69"/>
<path d="M29.428 27.7937C28.7131 31.3071 26.2886 32.2471 25.0715 32.4953L23.6768 30.0796C22.9858 28.8828 24.3713 24.8796 25.625 23.1948C26.8541 21.5431 30.1338 18.2307 29.9309 21.945C29.728 25.6593 29.9638 25.16 29.428 27.7937Z" fill="white" stroke="#B874C6" stroke-width="1.69"/>
<path d="M19.9242 23.1155L15.5579 15.5529L27.9504 8.34498L29.1555 10.9281C31.0886 20.9292 31.1284 20.7782 27.0389 22.7115C22.0944 25.2595 21.0858 25.1274 19.9242 23.1155Z" fill="white" stroke="#B874C6" stroke-width="1.69"/>
<path d="M27.9439 8.34582L15.4502 15.3853L11.055 7.77265C10.5195 6.84517 13.1741 -1.03608 21.499 2.71086C25.9147 4.69827 26.8114 6.67926 27.9439 8.34582Z" fill="white" stroke="#B874C6" stroke-width="1.69"/>
</svg>
