<svg width="32" height="36" viewBox="0 0 32 36" fill="none" xmlns="http://www.w3.org/2000/svg">
<rect x="17.4355" y="25.9014" width="8.55679" height="11.7859" transform="rotate(120 17.4355 25.9014)" fill="#002471"/>
<path d="M14.1026 34.2923C10.6249 35.3627 7.95876 33.4715 7.09057 32.5191L8.43824 30.1849C9.1242 28.9967 13.9723 28.4257 16.126 28.7152C18.2375 28.999 22.9067 30.2862 19.5252 31.905C16.1437 33.5238 16.7095 33.49 14.1026 34.2923Z" fill="white" stroke="#002471" stroke-width="1.69"/>
<path d="M12.181 23.0305L16.5473 15.4678L28.9858 22.5961L26.7857 26.4067C22.5302 31.9222 19.8073 31.565 16.0883 28.9899C11.4093 25.9819 11.0195 25.0423 12.181 23.0305Z" fill="white" stroke="#002471" stroke-width="1.69"/>
<path d="M15.0414 1.77281L28.043 9.2793C27.9485 8.01531 26.792 4.92871 22.9218 2.69422C19.0515 0.459736 16.0556 1.14891 15.0414 1.77281Z" fill="white" stroke="#002471" stroke-width="1.69"/>
<path d="M28.9829 22.5907L16.6397 15.2906L21.0349 7.67792C21.5703 6.75046 29.723 5.10874 30.6405 14.1918C31.1272 19.0096 29.86 20.7767 28.9829 22.5907Z" fill="white" stroke="#002471" stroke-width="1.69"/>
<path d="M2.7478 27.7937C3.46266 31.3071 5.8872 32.2471 7.10428 32.4953L8.49899 30.0796C9.18995 28.8828 7.80452 24.8796 6.55079 23.1948C5.32166 21.5431 2.04199 18.2307 2.24486 21.945C2.44774 25.6593 2.21194 25.16 2.7478 27.7937Z" fill="white" stroke="#002471" stroke-width="1.69"/>
<path d="M12.2516 23.1155L16.6179 15.5529L4.22537 8.34498L3.02027 10.9281C1.08718 20.9292 1.04735 20.7782 5.13688 22.7115C10.0814 25.2595 11.09 25.1274 12.2516 23.1155Z" fill="white" stroke="#002471" stroke-width="1.69"/>
<path d="M4.23192 8.34582L16.7256 15.3853L21.1208 7.77265C21.6563 6.84517 19.0017 -1.03608 10.6768 2.71086C6.26113 4.69827 5.36433 6.67926 4.23192 8.34582Z" fill="white" stroke="#002471" stroke-width="1.69"/>
</svg>
