<svg width="31" height="36" viewBox="0 0 31 36" fill="none" xmlns="http://www.w3.org/2000/svg">
<rect x="9.7832" y="12.1582" width="8.55679" height="11.7859" transform="rotate(-90 9.7832 12.1582)" fill="#B874C6"/>
<path d="M8.47242 3.2257C10.949 0.55988 14.2035 0.864614 15.4316 1.25536V3.95069C15.4316 5.32262 11.5186 8.24115 9.50864 9.06732C7.53813 9.87729 2.85091 11.0972 4.96998 8.00451C7.08905 4.91182 6.61596 5.22403 8.47242 3.2257Z" fill="white" stroke="#B874C6" stroke-width="1.69"/>
<path d="M15.7676 12.0173L15.7676 20.7499L1.43143 20.7959V16.3958C2.35905 9.49137 4.8958 8.43935 9.40407 8.80986C14.9602 9.07548 15.7676 9.6942 15.7676 12.0173Z" fill="white" stroke="#B874C6" stroke-width="1.69"/>
<path d="M23.9192 31.8574L8.90625 31.8574C9.62005 32.9048 12.1649 34.9997 16.6339 34.9997C21.1028 34.9997 23.3528 32.9048 23.9192 31.8574Z" fill="white" stroke="#B874C6" stroke-width="1.69"/>
<path d="M1.43773 20.7988L15.7773 20.9493L15.7773 29.7396C15.7773 30.8106 9.5378 36.3087 4.20166 28.9013C1.3713 24.9723 1.58515 22.8083 1.43773 20.7988Z" fill="white" stroke="#B874C6" stroke-width="1.69"/>
<path d="M21.5553 3.1763C19.1795 0.491043 16.6098 0.889196 15.4316 1.28279L15.4316 4.07219C15.4316 5.45413 18.6331 8.22832 20.5612 9.06052C22.4516 9.8764 26.948 11.1052 24.9152 7.98996C22.8824 4.87472 23.3362 5.1892 21.5553 3.1763Z" fill="white" stroke="#B874C6" stroke-width="1.69"/>
<path d="M15.6641 11.9787L15.6641 20.7113L30.0002 20.7573L29.7523 17.9176C26.4258 8.28989 26.5358 8.40076 22.0276 8.77127C16.4715 9.0369 15.6641 9.65562 15.6641 11.9787Z" fill="white" stroke="#B874C6" stroke-width="1.69"/>
<path d="M29.9939 20.7607L15.6543 20.9112L15.6543 29.7016C15.6543 30.7725 21.8938 36.2706 27.23 28.8632C30.0603 24.9342 29.8465 22.7702 29.9939 20.7607Z" fill="white" stroke="#B874C6" stroke-width="1.69"/>
</svg>
