<svg width="32" height="36" viewBox="0 0 32 36" fill="none" xmlns="http://www.w3.org/2000/svg">
<rect x="14.7402" y="9.5791" width="8.55679" height="11.7859" transform="rotate(-60 14.7402 9.5791)" fill="#002471"/>
<path d="M18.0732 1.18813C21.5508 0.117746 24.217 2.00894 25.0852 2.96138L23.7375 5.29561C23.0516 6.48373 18.2035 7.05472 16.0498 6.76524C13.9383 6.48144 9.26906 5.1943 12.6506 3.57549C16.0321 1.95668 15.4663 1.99051 18.0732 1.18813Z" fill="white" stroke="#002471" stroke-width="1.69"/>
<path d="M19.9948 12.45L15.6285 20.0126L3.19002 12.8844L5.39007 9.07379C9.64561 3.55822 12.3685 3.91552 16.0875 6.49052C20.7664 9.49861 21.1563 10.4381 19.9948 12.45Z" fill="white" stroke="#002471" stroke-width="1.69"/>
<path d="M17.1344 33.7077L4.13281 26.2012C4.22727 27.4652 5.38374 30.5518 9.25399 32.7862C13.1242 35.0207 16.1202 34.3316 17.1344 33.7077Z" fill="white" stroke="#002471" stroke-width="1.69"/>
<path d="M3.19286 12.8898L15.5361 20.1899L11.1409 27.8025C10.6054 28.73 2.4528 30.3717 1.53527 21.2886C1.0486 16.4709 2.31578 14.7037 3.19286 12.8898Z" fill="white" stroke="#002471" stroke-width="1.69"/>
<path d="M29.428 7.68679C28.7131 4.1734 26.2886 3.23334 25.0715 2.98514L23.6768 5.40083C22.9858 6.59762 24.3713 10.6009 25.625 12.2856C26.8541 13.9374 30.1338 17.2498 29.9309 13.5355C29.728 9.8212 29.9638 10.3205 29.428 7.68679Z" fill="white" stroke="#002471" stroke-width="1.69"/>
<path d="M19.9242 12.365L15.5579 19.9276L27.9504 27.1355L29.1555 24.5523C31.0886 14.5512 31.1284 14.7023 27.0389 12.769C22.0944 10.221 21.0858 10.3531 19.9242 12.365Z" fill="white" stroke="#002471" stroke-width="1.69"/>
<path d="M27.9439 27.1346L15.4502 20.0952L11.055 27.7078C10.5195 28.6353 13.1741 36.5165 21.499 32.7696C25.9147 30.7822 26.8114 28.8012 27.9439 27.1346Z" fill="white" stroke="#002471" stroke-width="1.69"/>
</svg>
