<svg width="31" height="37" viewBox="0 0 31 37" fill="none" xmlns="http://www.w3.org/2000/svg">
<rect x="9.43945" y="12.8984" width="8.55679" height="11.7859" transform="rotate(-90 9.43945 12.8984)" fill="#B874C6"/>
<path d="M8.12867 3.96593C10.6052 1.30011 13.8598 1.60485 15.0879 1.99559V4.69092C15.0879 6.06286 11.1748 8.98138 9.16489 9.80756C7.19438 10.6175 2.50716 11.8374 4.62623 8.74475C6.7453 5.65206 6.27221 5.96426 8.12867 3.96593Z" fill="white" stroke="#B874C6" stroke-width="1.69"/>
<path d="M15.4238 12.7575L15.4238 21.4901L1.08768 21.5361V17.136C2.0153 10.2316 4.55205 9.17958 9.06032 9.55009C14.6164 9.81572 15.4238 10.4344 15.4238 12.7575Z" fill="white" stroke="#B874C6" stroke-width="1.69"/>
<path d="M23.5755 32.5977H8.5625C9.2763 33.6451 11.8211 35.7399 16.2901 35.7399C20.7591 35.7399 23.0091 33.6451 23.5755 32.5977Z" fill="white" stroke="#B874C6" stroke-width="1.69"/>
<path d="M1.09398 21.5391L15.4336 21.6895L15.4336 30.4799C15.4336 31.5508 9.19405 37.0489 3.85791 29.6415C1.02755 25.7125 1.2414 23.5486 1.09398 21.5391Z" fill="white" stroke="#B874C6" stroke-width="1.69"/>
<path d="M21.2115 3.91653C18.8358 1.23128 16.266 1.62943 15.0879 2.02302L15.0879 4.81243C15.0879 6.19436 18.2893 8.96856 20.2175 9.80076C22.1078 10.6166 26.6043 11.8454 24.5715 8.73019C22.5386 5.61496 22.9925 5.92943 21.2115 3.91653Z" fill="white" stroke="#B874C6" stroke-width="1.69"/>
<path d="M15.3203 12.719L15.3203 21.4515L29.6565 21.4975L29.4085 18.6579C26.0821 9.03012 26.1921 9.141 21.6838 9.51151C16.1277 9.77713 15.3203 10.3959 15.3203 12.719Z" fill="white" stroke="#B874C6" stroke-width="1.69"/>
<path d="M29.6502 21.501L15.3106 21.6514L15.3105 30.4418C15.3106 31.5127 21.5501 37.0108 26.8862 29.6034C29.7166 25.6744 29.5027 23.5105 29.6502 21.501Z" fill="white" stroke="#B874C6" stroke-width="1.69"/>
</svg>
