<svg width="31" height="37" viewBox="0 0 31 37" fill="none" xmlns="http://www.w3.org/2000/svg">
<rect x="21.7363" y="24.582" width="8.55679" height="11.7859" transform="rotate(90 21.7363 24.582)" fill="#002471"/>
<path d="M23.0471 33.5145C20.5706 36.1804 17.316 35.8756 16.0879 35.4849V32.7895C16.0879 31.4176 20.001 28.4991 22.0109 27.6729C23.9814 26.8629 28.6686 25.643 26.5495 28.7357C24.4305 31.8284 24.9036 31.5162 23.0471 33.5145Z" fill="white" stroke="#002471" stroke-width="1.69"/>
<path d="M15.752 24.7229L15.752 15.9904L30.0881 15.9444V20.3445C29.1605 27.2489 26.6237 28.3009 22.1155 27.9304C16.5594 27.6648 15.752 27.046 15.752 24.7229Z" fill="white" stroke="#002471" stroke-width="1.69"/>
<path d="M7.60031 4.88281L22.6133 4.88281C21.8995 3.8354 19.3547 1.74056 14.8857 1.74056C10.4167 1.74056 8.16669 3.8354 7.60031 4.88281Z" fill="white" stroke="#002471" stroke-width="1.69"/>
<path d="M30.0818 15.9414L15.7422 15.7909L15.7422 7.00059C15.7422 5.92964 21.9817 0.431548 27.3179 7.83896C30.1482 11.7679 29.9344 13.9319 30.0818 15.9414Z" fill="white" stroke="#002471" stroke-width="1.69"/>
<path d="M9.96424 33.5639C12.34 36.2492 14.9098 35.851 16.0879 35.4574L16.0879 32.668C16.0879 31.2861 12.8864 28.5119 10.9583 27.6797C9.06797 26.8638 4.57148 25.635 6.60433 28.7503C8.63717 31.8655 8.18332 31.551 9.96424 33.5639Z" fill="white" stroke="#002471" stroke-width="1.69"/>
<path d="M15.8555 24.7615L15.8555 16.0289L1.51932 15.983L1.76725 18.8226C5.09369 28.4503 4.98369 28.3395 9.49196 27.969C15.0481 27.7033 15.8555 27.0846 15.8555 24.7615Z" fill="white" stroke="#002471" stroke-width="1.69"/>
<path d="M1.52562 15.9795L15.8652 15.829L15.8652 7.03868C15.8652 5.96772 9.62569 0.469635 4.28955 7.87705C1.45919 11.806 1.67304 13.97 1.52562 15.9795Z" fill="white" stroke="#002471" stroke-width="1.69"/>
</svg>
