<svg width="32" height="36" viewBox="0 0 32 36" fill="none" xmlns="http://www.w3.org/2000/svg">
<rect width="8.55679" height="11.7859" transform="matrix(-0.5 -0.866025 -0.866025 0.5 17.4355 9.5791)" fill="#002471"/>
<path d="M14.1026 1.18813C10.6249 0.117746 7.95876 2.00894 7.09057 2.96138L8.43824 5.29561C9.1242 6.48373 13.9723 7.05472 16.126 6.76524C18.2375 6.48144 22.9067 5.1943 19.5252 3.57549C16.1437 1.95668 16.7095 1.99051 14.1026 1.18813Z" fill="white" stroke="#002471" stroke-width="1.69"/>
<path d="M12.181 12.45L16.5473 20.0126L28.9858 12.8844L26.7857 9.07379C22.5302 3.55822 19.8073 3.91552 16.0883 6.49052C11.4093 9.49861 11.0195 10.4381 12.181 12.45Z" fill="white" stroke="#002471" stroke-width="1.69"/>
<path d="M15.0414 33.7077L28.043 26.2012C27.9485 27.4652 26.792 30.5518 22.9218 32.7862C19.0515 35.0207 16.0556 34.3316 15.0414 33.7077Z" fill="white" stroke="#002471" stroke-width="1.69"/>
<path d="M28.9829 12.8898L16.6397 20.1899L21.0349 27.8025C21.5703 28.73 29.723 30.3717 30.6405 21.2886C31.1272 16.4709 29.86 14.7037 28.9829 12.8898Z" fill="white" stroke="#002471" stroke-width="1.69"/>
<path d="M2.7478 7.68679C3.46266 4.1734 5.8872 3.23334 7.10428 2.98514L8.49899 5.40083C9.18995 6.59762 7.80452 10.6009 6.55079 12.2856C5.32166 13.9374 2.04199 17.2498 2.24486 13.5355C2.44774 9.8212 2.21194 10.3205 2.7478 7.68679Z" fill="white" stroke="#002471" stroke-width="1.69"/>
<path d="M12.2516 12.365L16.6179 19.9276L4.22537 27.1355L3.02027 24.5523C1.08718 14.5512 1.04735 14.7023 5.13688 12.769C10.0814 10.221 11.09 10.3531 12.2516 12.365Z" fill="white" stroke="#002471" stroke-width="1.69"/>
<path d="M4.23192 27.1346L16.7256 20.0952L21.1208 27.7078C21.6563 28.6353 19.0017 36.5165 10.6768 32.7696C6.26113 30.7822 5.36433 28.8012 4.23192 27.1346Z" fill="white" stroke="#002471" stroke-width="1.69"/>
</svg>
