<svg width="16" height="17" viewBox="0 0 16 17" fill="none" xmlns="http://www.w3.org/2000/svg">
<path d="M1.77778 16.2939C1.28889 16.2939 0.870222 16.12 0.521778 15.7722C0.173926 15.4237 0 15.0051 0 14.5162V8.6495C0 8.6495 1.20871 11.1079 2.66667 11.3162C4.61061 11.5939 4.25854 7.76061 6.22222 7.76061C8.1859 7.76061 7.8141 11.3162 9.77778 11.3162C11.7415 11.3162 11.3894 7.48291 13.3333 7.76061C14.7913 7.96889 16 10.4273 16 10.4273V14.5162C16 15.0051 15.8261 15.4237 15.4782 15.7722C15.1298 16.12 14.7111 16.2939 14.2222 16.2939H1.77778ZM1.77778 0.293945H14.2222C14.7111 0.293945 15.1298 0.467871 15.4782 0.815723C15.8261 1.16417 16 1.58283 16 2.07172V7.91617C16 7.91617 14.7913 5.45778 13.3333 5.2495C11.3894 4.97179 11.7415 8.80506 9.77778 8.80506C7.8141 8.80506 8.1859 5.2495 6.22222 5.2495C4.25854 5.2495 4.61061 9.08276 2.66667 8.80506C1.20871 8.59678 0 6.13839 0 6.13839V2.07172C0 1.58283 0.173926 1.16417 0.521778 0.815723C0.870222 0.467871 1.28889 0.293945 1.77778 0.293945Z" fill="#B874C6"/>
</svg>
