<svg width="12" height="17" viewBox="0 0 12 17" fill="none" xmlns="http://www.w3.org/2000/svg">
<path d="M7.4534 1.1196C6.81188 0.0187271 5.18787 0.0187271 4.54636 1.1196L0.808727 7.53603C0.315841 8.38408 2.26041e-07 9.36441 2.26041e-07 10.4344C-0.000240551 11.2907 0.191876 12.1367 0.562818 12.9127C0.933761 13.6888 1.47451 14.376 2.14697 14.926C2.81944 15.476 3.60727 15.8754 4.45498 16.0961C5.30269 16.3168 6.18965 16.3534 7.05341 16.2033C9.25337 15.8374 11.0643 14.2277 11.7233 12.1673C12.2653 10.4738 11.961 8.91692 11.2446 7.63523L11.2424 7.63096L7.45285 1.1196H7.4534Z" fill="#FF0000"/>
</svg>
