<svg width="8" height="17" viewBox="0 0 8 17" fill="none" xmlns="http://www.w3.org/2000/svg">
<path fill-rule="evenodd" clip-rule="evenodd" d="M0.107422 5.24409V12.8521C0.107422 14.3272 1.32389 16.2939 3.99944 16.2939C6.67541 16.2939 7.89145 14.5728 7.89145 12.8521V12.4824C7.267 10.8953 5.97355 9.30692 4.42583 7.97022C3.5719 7.23204 2.64933 6.57722 1.67071 6.0147C1.58836 5.96987 1.50648 5.92418 1.42509 5.87762C0.99778 5.64251 0.557898 5.43101 0.107422 5.24409ZM4.44572 6.86316C4.63037 7.0102 4.812 7.16155 4.99103 7.31637C6.11539 8.28721 7.13986 9.40897 7.89145 10.5995V5.48323C6.57595 6.4251 5.50867 6.861 4.44572 6.86316Z" fill="#E7EBFD"/>
<path fill-rule="evenodd" clip-rule="evenodd" d="M0.107422 5.24409V12.8521C0.107422 14.3272 1.32389 16.2939 3.99944 16.2939C6.67541 16.2939 7.89145 14.5728 7.89145 12.8521V12.4824C7.267 10.8953 5.97355 9.30692 4.42583 7.97022C3.5719 7.23204 2.64933 6.57722 1.67071 6.0147C1.58836 5.96987 1.50648 5.92418 1.42509 5.87762C0.99778 5.64251 0.557898 5.43101 0.107422 5.24409ZM4.44572 6.86316C4.63037 7.0102 4.812 7.16155 4.99103 7.31637C6.11539 8.28721 7.13986 9.40897 7.89145 10.5995V5.48323C6.57595 6.4251 5.50867 6.861 4.44572 6.86316Z" fill="url(#paint0_linear_1097_1348)"/>
<path d="M3.99944 5.4832C4.68759 5.4832 5.34755 5.20983 5.83415 4.72324C6.32074 4.23664 6.59411 3.57668 6.59411 2.88852C6.59411 2.20037 6.32074 1.54041 5.83415 1.05381C5.34755 0.567216 4.68759 0.293849 3.99944 0.293849C3.31128 0.293849 2.65132 0.567216 2.16472 1.05381C1.67813 1.54041 1.40476 2.20037 1.40476 2.88852C1.40476 3.57668 1.67813 4.23664 2.16472 4.72324C2.65132 5.20983 3.31128 5.4832 3.99944 5.4832Z" fill="#E7EBFD"/>
<path d="M3.99944 5.4832C4.68759 5.4832 5.34755 5.20983 5.83415 4.72324C6.32074 4.23664 6.59411 3.57668 6.59411 2.88852C6.59411 2.20037 6.32074 1.54041 5.83415 1.05381C5.34755 0.567216 4.68759 0.293849 3.99944 0.293849C3.31128 0.293849 2.65132 0.567216 2.16472 1.05381C1.67813 1.54041 1.40476 2.20037 1.40476 2.88852C1.40476 3.57668 1.67813 4.23664 2.16472 4.72324C2.65132 5.20983 3.31128 5.4832 3.99944 5.4832Z" fill="url(#paint1_linear_1097_1348)"/>
<defs>
<linearGradient id="paint0_linear_1097_1348" x1="0.107422" y1="0.293945" x2="12.696" y2="6.4183" gradientUnits="userSpaceOnUse">
<stop stop-color="#F4AF73"/>
<stop offset="1" stop-color="#DF6969"/>
</linearGradient>
<linearGradient id="paint1_linear_1097_1348" x1="0.107422" y1="0.293945" x2="12.696" y2="6.4183" gradientUnits="userSpaceOnUse">
<stop stop-color="#F4AF73"/>
<stop offset="1" stop-color="#DF6969"/>
</linearGradient>
</defs>
</svg>
