<svg width="24" height="24" viewBox="0 0 24 24" fill="none" xmlns="http://www.w3.org/2000/svg">
<path d="M10.3639 20.0306C12.5087 20.0302 14.5917 19.3122 16.2811 17.9909L21.593 23.3028L23.3016 21.5942L17.9897 16.2823C19.3116 14.5927 20.0301 12.5093 20.0306 10.3639C20.0306 5.03397 15.6939 0.697266 10.3639 0.697266C5.03397 0.697266 0.697266 5.03397 0.697266 10.3639C0.697266 15.6939 5.03397 20.0306 10.3639 20.0306ZM10.3639 3.11393C14.3623 3.11393 17.6139 6.36556 17.6139 10.3639C17.6139 14.3623 14.3623 17.6139 10.3639 17.6139C6.36556 17.6139 3.11393 14.3623 3.11393 10.3639C3.11393 6.36556 6.36556 3.11393 10.3639 3.11393Z" fill="white"/>
<path d="M12.0701 8.65501C12.5281 9.11417 12.7806 9.72076 12.7806 10.3636H15.1973C15.1983 9.72852 15.0735 9.09954 14.83 8.51301C14.5865 7.92647 14.2292 7.39402 13.7787 6.94642C11.9493 5.11942 8.7774 5.11942 6.94919 6.94642L8.65536 8.65742C9.57369 7.74151 11.1566 7.74392 12.0701 8.65501Z" fill="white"/>
</svg>
