<svg width="14" height="17" viewBox="0 0 14 17" fill="none" xmlns="http://www.w3.org/2000/svg">
<path d="M7.77778 0.293945V4.86561C7.77768 5.06579 7.81784 5.26404 7.89596 5.44901C7.97409 5.63399 8.08866 5.80207 8.23311 5.94366C8.37757 6.08524 8.54909 6.19756 8.73787 6.27419C8.92665 6.35082 9.12899 6.39026 9.33333 6.39026H14V14.0105C14 14.4146 13.8361 14.8022 13.5444 15.088C13.2527 15.3738 12.857 15.5344 12.4444 15.5344H5.44444V12.7373C5.9242 12.1566 6.19726 11.4383 6.22207 10.6917C6.24689 9.94503 6.02211 9.21087 5.58192 8.60086C5.14174 7.99085 4.51023 7.53837 3.78345 7.31222C3.05667 7.08608 2.27438 7.09865 1.55556 7.34803V1.81783C1.55556 1.41367 1.71944 1.02607 2.01117 0.740282C2.30289 0.454497 2.69855 0.293945 3.11111 0.293945H7.77778ZM8.94444 0.674917V4.86561C8.94444 4.96665 8.98542 5.06355 9.05835 5.135C9.13128 5.20645 9.23019 5.24658 9.33333 5.24658H13.6111L8.94444 0.674917ZM5.44444 10.5817C5.44444 10.9319 5.37403 11.2787 5.23723 11.6023C5.10042 11.9258 4.89991 12.2198 4.64712 12.4674C4.39434 12.7151 4.09425 12.9115 3.76397 13.0455C3.4337 13.1795 3.07971 13.2485 2.72222 13.2485C2.36473 13.2485 2.01075 13.1795 1.68047 13.0455C1.3502 12.9115 1.0501 12.7151 0.79732 12.4674C0.544539 12.2198 0.344021 11.9258 0.207217 11.6023C0.0704123 11.2787 -5.32698e-09 10.9319 0 10.5817C1.07583e-08 9.87444 0.286805 9.19612 0.79732 8.696C1.30784 8.19588 2.00024 7.91491 2.72222 7.91491C3.4442 7.91491 4.13661 8.19588 4.64712 8.696C5.15764 9.19612 5.44444 9.87444 5.44444 10.5817ZM0.777778 13.4329V15.7523C0.777638 15.8593 0.809922 15.964 0.870542 16.0531C0.931163 16.1421 1.0174 16.2116 1.11832 16.2526C1.21925 16.2937 1.33034 16.3044 1.43752 16.2836C1.54471 16.2627 1.64317 16.2112 1.72044 16.1355L2.72222 15.1541L3.724 16.1355C3.80128 16.2112 3.89974 16.2627 4.00692 16.2836C4.11411 16.3044 4.22519 16.2937 4.32612 16.2526C4.42705 16.2116 4.51328 16.1421 4.5739 16.0531C4.63452 15.964 4.66681 15.8593 4.66667 15.7523V13.4329C4.0915 13.8104 3.41455 14.0115 2.72222 14.0105C2.02987 14.0116 1.35288 13.8106 0.777778 13.4329Z" fill="#E7EBFD"/>
<path d="M7.77778 0.293945V4.86561C7.77768 5.06579 7.81784 5.26404 7.89596 5.44901C7.97409 5.63399 8.08866 5.80207 8.23311 5.94366C8.37757 6.08524 8.54909 6.19756 8.73787 6.27419C8.92665 6.35082 9.12899 6.39026 9.33333 6.39026H14V14.0105C14 14.4146 13.8361 14.8022 13.5444 15.088C13.2527 15.3738 12.857 15.5344 12.4444 15.5344H5.44444V12.7373C5.9242 12.1566 6.19726 11.4383 6.22207 10.6917C6.24689 9.94503 6.02211 9.21087 5.58192 8.60086C5.14174 7.99085 4.51023 7.53837 3.78345 7.31222C3.05667 7.08608 2.27438 7.09865 1.55556 7.34803V1.81783C1.55556 1.41367 1.71944 1.02607 2.01117 0.740282C2.30289 0.454497 2.69855 0.293945 3.11111 0.293945H7.77778ZM8.94444 0.674917V4.86561C8.94444 4.96665 8.98542 5.06355 9.05835 5.135C9.13128 5.20645 9.23019 5.24658 9.33333 5.24658H13.6111L8.94444 0.674917ZM5.44444 10.5817C5.44444 10.9319 5.37403 11.2787 5.23723 11.6023C5.10042 11.9258 4.89991 12.2198 4.64712 12.4674C4.39434 12.7151 4.09425 12.9115 3.76397 13.0455C3.4337 13.1795 3.07971 13.2485 2.72222 13.2485C2.36473 13.2485 2.01075 13.1795 1.68047 13.0455C1.3502 12.9115 1.0501 12.7151 0.79732 12.4674C0.544539 12.2198 0.344021 11.9258 0.207217 11.6023C0.0704123 11.2787 -5.32698e-09 10.9319 0 10.5817C1.07583e-08 9.87444 0.286805 9.19612 0.79732 8.696C1.30784 8.19588 2.00024 7.91491 2.72222 7.91491C3.4442 7.91491 4.13661 8.19588 4.64712 8.696C5.15764 9.19612 5.44444 9.87444 5.44444 10.5817ZM0.777778 13.4329V15.7523C0.777638 15.8593 0.809922 15.964 0.870542 16.0531C0.931163 16.1421 1.0174 16.2116 1.11832 16.2526C1.21925 16.2937 1.33034 16.3044 1.43752 16.2836C1.54471 16.2627 1.64317 16.2112 1.72044 16.1355L2.72222 15.1541L3.724 16.1355C3.80128 16.2112 3.89974 16.2627 4.00692 16.2836C4.11411 16.3044 4.22519 16.2937 4.32612 16.2526C4.42705 16.2116 4.51328 16.1421 4.5739 16.0531C4.63452 15.964 4.66681 15.8593 4.66667 15.7523V13.4329C4.0915 13.8104 3.41455 14.0115 2.72222 14.0105C2.02987 14.0116 1.35288 13.8106 0.777778 13.4329Z" fill="url(#paint0_linear_1097_1622)"/>
<defs>
<linearGradient id="paint0_linear_1097_1622" x1="0" y1="0.293945" x2="15.8584" y2="14.1701" gradientUnits="userSpaceOnUse">
<stop stop-color="#F4AF73"/>
<stop offset="1" stop-color="#DF6969"/>
</linearGradient>
</defs>
</svg>
