<svg width="16" height="17" viewBox="0 0 16 17" fill="none" xmlns="http://www.w3.org/2000/svg">
<path d="M8 16.2939C5.76667 16.2939 3.875 15.5189 2.325 13.9689C0.775 12.4189 0 10.5273 0 8.29395C0 6.06061 0.775 4.16895 2.325 2.61895C3.875 1.06895 5.76667 0.293945 8 0.293945C9.15 0.293945 10.25 0.531612 11.3 1.00695C12.35 1.48161 13.25 2.16061 14 3.04395V1.29395C14 1.01061 14.096 0.772945 14.288 0.580945C14.4793 0.389612 14.7167 0.293945 15 0.293945C15.2833 0.293945 15.5207 0.389612 15.712 0.580945C15.904 0.772945 16 1.01061 16 1.29395V6.29395C16 6.57728 15.904 6.81461 15.712 7.00595C15.5207 7.19795 15.2833 7.29395 15 7.29395H10C9.71667 7.29395 9.47933 7.19795 9.288 7.00595C9.096 6.81461 9 6.57728 9 6.29395C9 6.01061 9.096 5.77294 9.288 5.58095C9.47933 5.38961 9.71667 5.29395 10 5.29395H13.2C12.6667 4.36061 11.9377 3.62728 11.013 3.09395C10.0877 2.56061 9.08333 2.29395 8 2.29395C6.33333 2.29395 4.91667 2.87728 3.75 4.04395C2.58333 5.21061 2 6.62728 2 8.29395C2 9.96061 2.58333 11.3773 3.75 12.5439C4.91667 13.7106 6.33333 14.2939 8 14.2939C9.15 14.2939 10.2127 13.9896 11.188 13.3809C12.1627 12.7729 12.8917 11.9606 13.375 10.9439C13.4583 10.7606 13.596 10.6066 13.788 10.4819C13.9793 10.3566 14.175 10.2939 14.375 10.2939C14.7583 10.2939 15.046 10.4273 15.238 10.6939C15.4293 10.9606 15.45 11.2606 15.3 11.5939C14.6667 13.0106 13.6917 14.1479 12.375 15.0059C11.0583 15.8646 9.6 16.2939 8 16.2939Z" fill="#E7EBFD"/>
<path d="M8 16.2939C5.76667 16.2939 3.875 15.5189 2.325 13.9689C0.775 12.4189 0 10.5273 0 8.29395C0 6.06061 0.775 4.16895 2.325 2.61895C3.875 1.06895 5.76667 0.293945 8 0.293945C9.15 0.293945 10.25 0.531612 11.3 1.00695C12.35 1.48161 13.25 2.16061 14 3.04395V1.29395C14 1.01061 14.096 0.772945 14.288 0.580945C14.4793 0.389612 14.7167 0.293945 15 0.293945C15.2833 0.293945 15.5207 0.389612 15.712 0.580945C15.904 0.772945 16 1.01061 16 1.29395V6.29395C16 6.57728 15.904 6.81461 15.712 7.00595C15.5207 7.19795 15.2833 7.29395 15 7.29395H10C9.71667 7.29395 9.47933 7.19795 9.288 7.00595C9.096 6.81461 9 6.57728 9 6.29395C9 6.01061 9.096 5.77294 9.288 5.58095C9.47933 5.38961 9.71667 5.29395 10 5.29395H13.2C12.6667 4.36061 11.9377 3.62728 11.013 3.09395C10.0877 2.56061 9.08333 2.29395 8 2.29395C6.33333 2.29395 4.91667 2.87728 3.75 4.04395C2.58333 5.21061 2 6.62728 2 8.29395C2 9.96061 2.58333 11.3773 3.75 12.5439C4.91667 13.7106 6.33333 14.2939 8 14.2939C9.15 14.2939 10.2127 13.9896 11.188 13.3809C12.1627 12.7729 12.8917 11.9606 13.375 10.9439C13.4583 10.7606 13.596 10.6066 13.788 10.4819C13.9793 10.3566 14.175 10.2939 14.375 10.2939C14.7583 10.2939 15.046 10.4273 15.238 10.6939C15.4293 10.9606 15.45 11.2606 15.3 11.5939C14.6667 13.0106 13.6917 14.1479 12.375 15.0059C11.0583 15.8646 9.6 16.2939 8 16.2939Z" fill="url(#paint0_linear_1097_1611)"/>
<defs>
<linearGradient id="paint0_linear_1097_1611" x1="0" y1="0.293945" x2="16" y2="16.2939" gradientUnits="userSpaceOnUse">
<stop stop-color="#F4AF73"/>
<stop offset="1" stop-color="#DF6969"/>
</linearGradient>
</defs>
</svg>
