<svg width="150" height="200" viewBox="0 0 150 200" fill="none" xmlns="http://www.w3.org/2000/svg">
<path d="M110.675 98.1751C111.849 97.0015 112.508 95.4098 112.508 93.7501C112.508 92.0904 111.849 90.4987 110.675 89.3251C109.502 88.1515 107.91 87.4922 106.25 87.4922C104.59 87.4922 102.999 88.1515 101.825 89.3251L68.7501 122.413L54.4251 108.075C53.2515 106.902 51.6598 106.242 50.0001 106.242C48.3404 106.242 46.7487 106.902 45.5751 108.075C44.4015 109.249 43.7422 110.84 43.7422 112.5C43.7422 114.16 44.4015 115.752 45.5751 116.925L64.3251 135.675C64.9057 136.257 65.5954 136.719 66.3547 137.034C67.114 137.349 67.928 137.511 68.7501 137.511C69.5722 137.511 70.3862 137.349 71.1455 137.034C71.9048 136.719 72.5945 136.257 73.1751 135.675L110.675 98.1751Z" fill="#2CDC52"/>
<path d="M150 175V56.25L93.75 0H25C18.3696 0 12.0107 2.63392 7.32233 7.32233C2.63392 12.0107 0 18.3696 0 25V175C0 181.63 2.63392 187.989 7.32233 192.678C12.0107 197.366 18.3696 200 25 200H125C131.63 200 137.989 197.366 142.678 192.678C147.366 187.989 150 181.63 150 175ZM93.75 37.5C93.75 42.4728 95.7254 47.2419 99.2417 50.7583C102.758 54.2746 107.527 56.25 112.5 56.25H137.5V175C137.5 178.315 136.183 181.495 133.839 183.839C131.495 186.183 128.315 187.5 125 187.5H25C21.6848 187.5 18.5054 186.183 16.1612 183.839C13.817 181.495 12.5 178.315 12.5 175V25C12.5 21.6848 13.817 18.5054 16.1612 16.1612C18.5054 13.817 21.6848 12.5 25 12.5H93.75V37.5Z" fill="#2CDC52"/>
</svg>
