<svg width="15" height="15" viewBox="0 0 15 15" fill="none" xmlns="http://www.w3.org/2000/svg">
<path fill-rule="evenodd" clip-rule="evenodd" d="M0.936507 0.789885C1.32536 0.397699 1.95582 0.397699 2.34468 0.789885L13.955 12.4996C14.3438 12.8918 14.3438 13.5276 13.955 13.9198C13.5661 14.312 12.9356 14.312 12.5468 13.9198L0.936507 2.21012C0.547652 1.81793 0.547652 1.18207 0.936507 0.789885Z" fill="#8C5656"/>
<path fill-rule="evenodd" clip-rule="evenodd" d="M0.936539 13.9198C0.547684 13.5276 0.547684 12.8917 0.936539 12.4995L12.5468 0.789838C12.9357 0.397652 13.5661 0.397652 13.955 0.789838C14.3438 1.18202 14.3438 1.81788 13.955 2.21007L2.34471 13.9198C1.95585 14.312 1.3254 14.312 0.936539 13.9198Z" fill="#8C5656"/>
</svg>
