<svg width="26" height="21" viewBox="0 0 26 21" fill="none" xmlns="http://www.w3.org/2000/svg">
<path d="M17.8585 6.56595L13.9951 10.5464L17.8585 14.2928L21.3707 10.5464L17.8585 6.56595Z" fill="#B874C6"/>
<path d="M25 10.5464C25 8.53385 22.6717 5.43557 17.8585 3.29496M25 10.5464C25 12.7034 22.4821 16.1448 17.8585 18.0309M25 10.5464L21.3707 10.5464M5.44878 17.8896C7.08861 18.9072 9.26727 19.5216 12.122 19.3269C14.2899 19.1791 16.2083 18.7041 17.8585 18.0309M5.44878 17.8896C2.35415 15.9692 0.999943 13.0408 1 10.5464C1.05237 8.05884 2.1203 4.09182 5.44878 2.26008M5.44878 17.8896C6.44223 16.5147 7.66047 13.8282 7.76821 10.5464M5.44878 2.26008C7.08079 1.36195 9.25626 0.977157 12.122 1.53181C14.3219 1.9576 16.2321 2.5716 17.8585 3.29496M5.44878 2.26008C7.27915 5.15697 7.85091 8.02711 7.76821 10.5464M7.76821 10.5464L13.9951 10.5464M13.9951 10.5464L17.8585 6.56595M13.9951 10.5464L17.8585 14.2928M17.8585 6.56595L17.8585 3.29496M17.8585 6.56595L21.3707 10.5464M17.8585 14.2928L17.8585 18.0309M17.8585 14.2928L21.3707 10.5464" stroke="#B874C6" stroke-width="1.68707"/>
</svg>
