<svg width="9" height="8" viewBox="0 0 9 8" fill="none" xmlns="http://www.w3.org/2000/svg">
<path fill-rule="evenodd" clip-rule="evenodd" d="M5.56573 0.79536C5.4873 0.632021 5.36431 0.494167 5.21094 0.39768C5.05757 0.301193 4.88007 0.25 4.69887 0.25C4.51768 0.25 4.34017 0.301193 4.1868 0.39768C4.03344 0.494167 3.91045 0.632021 3.83201 0.79536L1.06543 6.23751C0.734435 6.88723 1.15269 7.75 1.93195 7.75H7.46546C8.24505 7.75 8.66263 6.88757 8.33232 6.23751L5.56573 0.79536ZM4.69887 2.6368C4.78928 2.6368 4.87598 2.67271 4.93991 2.73664C5.00384 2.80056 5.03975 2.88727 5.03975 2.97768V4.68208C5.03975 4.77248 5.00384 4.85919 4.93991 4.92312C4.87598 4.98704 4.78928 5.02296 4.69887 5.02296C4.60847 5.02296 4.52176 4.98704 4.45783 4.92312C4.39391 4.85919 4.35799 4.77248 4.35799 4.68208V2.97768C4.35799 2.88727 4.39391 2.80056 4.45783 2.73664C4.52176 2.67271 4.60847 2.6368 4.69887 2.6368ZM4.69887 5.53428C4.78928 5.53428 4.87598 5.57019 4.93991 5.63412C5.00384 5.69805 5.03975 5.78475 5.03975 5.87516V6.0456C5.03975 6.13601 5.00384 6.22271 4.93991 6.28664C4.87598 6.35056 4.78928 6.38648 4.69887 6.38648C4.60847 6.38648 4.52176 6.35056 4.45783 6.28664C4.39391 6.22271 4.35799 6.13601 4.35799 6.0456V5.87516C4.35799 5.78475 4.39391 5.69805 4.45783 5.63412C4.52176 5.57019 4.60847 5.53428 4.69887 5.53428Z" fill="#CBB281"/>
</svg>
