<svg width="16" height="15" viewBox="0 0 16 15" fill="none" xmlns="http://www.w3.org/2000/svg">
<path d="M15 6.29422H3.14L6.77 1.93422C6.93974 1.73 7.0214 1.46672 6.99702 1.2023C6.97264 0.937871 6.84422 0.69396 6.64 0.524221C6.43578 0.354482 6.1725 0.272821 5.90808 0.2972C5.64365 0.32158 5.39974 0.450004 5.23 0.654221L0.23 6.65422C0.196361 6.70194 0.166279 6.75208 0.14 6.80422C0.14 6.85422 0.14 6.88422 0.0700002 6.93422C0.0246737 7.04888 0.000941121 7.17093 0 7.29422C0.000941121 7.41751 0.0246737 7.53956 0.0700002 7.65422C0.0700002 7.70422 0.0699999 7.73422 0.14 7.78422C0.166279 7.83636 0.196361 7.8865 0.23 7.93422L5.23 13.9342C5.32402 14.0471 5.44176 14.1379 5.57485 14.2001C5.70793 14.2623 5.85309 14.2945 6 14.2942C6.23365 14.2947 6.46009 14.2133 6.64 14.0642C6.74126 13.9803 6.82496 13.8772 6.88631 13.7608C6.94766 13.6445 6.98546 13.5172 6.99754 13.3862C7.00961 13.2552 6.99573 13.1231 6.95669 12.9975C6.91764 12.8719 6.8542 12.7553 6.77 12.6542L3.14 8.29422H15C15.2652 8.29422 15.5196 8.18886 15.7071 8.00133C15.8946 7.81379 16 7.55944 16 7.29422C16 7.029 15.8946 6.77465 15.7071 6.58711C15.5196 6.39958 15.2652 6.29422 15 6.29422Z" fill="#E7EBFD"/>
<path d="M15 6.29422H3.14L6.77 1.93422C6.93974 1.73 7.0214 1.46672 6.99702 1.2023C6.97264 0.937871 6.84422 0.69396 6.64 0.524221C6.43578 0.354482 6.1725 0.272821 5.90808 0.2972C5.64365 0.32158 5.39974 0.450004 5.23 0.654221L0.23 6.65422C0.196361 6.70194 0.166279 6.75208 0.14 6.80422C0.14 6.85422 0.14 6.88422 0.0700002 6.93422C0.0246737 7.04888 0.000941121 7.17093 0 7.29422C0.000941121 7.41751 0.0246737 7.53956 0.0700002 7.65422C0.0700002 7.70422 0.0699999 7.73422 0.14 7.78422C0.166279 7.83636 0.196361 7.8865 0.23 7.93422L5.23 13.9342C5.32402 14.0471 5.44176 14.1379 5.57485 14.2001C5.70793 14.2623 5.85309 14.2945 6 14.2942C6.23365 14.2947 6.46009 14.2133 6.64 14.0642C6.74126 13.9803 6.82496 13.8772 6.88631 13.7608C6.94766 13.6445 6.98546 13.5172 6.99754 13.3862C7.00961 13.2552 6.99573 13.1231 6.95669 12.9975C6.91764 12.8719 6.8542 12.7553 6.77 12.6542L3.14 8.29422H15C15.2652 8.29422 15.5196 8.18886 15.7071 8.00133C15.8946 7.81379 16 7.55944 16 7.29422C16 7.029 15.8946 6.77465 15.7071 6.58711C15.5196 6.39958 15.2652 6.29422 15 6.29422Z" fill="url(#paint0_linear_1097_1587)"/>
<defs>
<linearGradient id="paint0_linear_1097_1587" x1="0" y1="0.292969" x2="13.8775" y2="16.1516" gradientUnits="userSpaceOnUse">
<stop stop-color="#F4AF73"/>
<stop offset="1" stop-color="#DF6969"/>
</linearGradient>
</defs>
</svg>
