<svg xmlns="http://www.w3.org/2000/svg" xmlns:xlink="http://www.w3.org/1999/xlink" version="1.1" width="42" height="42" viewBox="0 0 1000 1000" xml:space="preserve">
<desc>Created with Fabric.js 3.5.0</desc>
<defs>
</defs>
<rect x="0" y="0" width="100%" height="100%" fill="rgba(255,255,255,0)"/>
<g transform="matrix(19.0391 15.5306 -15.5306 19.0391 500.0002 499.9994)" id="735634">
<g style="" vector-effect="non-scaling-stroke">
		<g transform="matrix(1 0 0 1 -0.1876 0.2375)">
<path style="stroke: none; stroke-width: 1; stroke-dasharray: none; stroke-linecap: butt; stroke-dashoffset: 0; stroke-linejoin: miter; stroke-miterlimit: 4; is-custom-font: none; font-file-url: none; fill: rgb(255,255,255); fill-rule: nonzero; opacity: 1;" transform=" translate(-13.3124, -18.7374)" d="M 1.36157 27.7293 C 2.67685 33.8235 10.1367 35.6025 13.7426 35.7344 C 17.3677 35.5709 23.961 33.7627 25.2632 27.7293 C 26.9134 20.0831 23.2549 15.4149 22.6788 12.2212 C 22.1028 9.02748 22.174 6.26079 19.5185 4.61056 C 17.0432 3.0723 15.4278 1.76014 13.3124 1.74048 C 11.1969 1.76014 9.58155 3.0723 7.10623 4.61056 C 4.45074 6.26079 4.52191 9.02748 3.94589 12.2212 C 3.36987 15.4149 -0.288654 20.0831 1.36157 27.7293 Z" stroke-linecap="round"/>
</g>
		<g transform="matrix(1 0 0 1 -0.1876 0.2403)">
<path style="stroke: #002471; stroke-width: 1.63; stroke-dasharray: none; stroke-linecap: butt; stroke-dashoffset: 0; stroke-linejoin: miter; stroke-miterlimit: 4; is-custom-font: none; font-file-url: none; fill: none; fill-rule: nonzero; opacity: 1;" transform=" translate(-13.3124, -18.7402)" d="M 13.7828 35.7358 C 10.1924 35.6157 2.68175 33.8463 1.36157 27.7293 C -0.288654 20.0831 3.36987 15.4149 3.94589 12.2212 C 4.52191 9.02748 4.45074 6.26079 7.10623 4.61056 C 9.76171 2.96034 11.4275 1.57032 13.7828 1.75714 M 13.5937 35.7402 C 17.184 35.6201 23.943 33.8463 25.2632 27.7293 C 26.9134 20.0831 23.2549 15.4149 22.6788 12.2212 C 22.1028 9.02748 22.174 6.26079 19.5185 4.61056 C 16.863 2.96034 15.1972 1.57032 12.842 1.75714" stroke-linecap="round"/>
</g>
		<g transform="matrix(1 0 0 1 -1.2732 6.3713)">
<path style="stroke: none; stroke-width: 1; stroke-dasharray: none; stroke-linecap: butt; stroke-dashoffset: 0; stroke-linejoin: miter; stroke-miterlimit: 4; is-custom-font: none; font-file-url: none; fill: #002471; fill-rule: nonzero; opacity: 1;" transform=" translate(-12.2267, -24.8712)" d="M 13.7368 30.6137 C 13.5396 28.9442 11.938 25.5171 7.10924 25.1648 C 6.51333 25.1214 5.97182 25.0542 5.48029 24.9683 C 5.36814 24.9504 5.26078 24.9302 5.15877 24.908 C 5.26349 24.929 5.37065 24.9491 5.48029 24.9683 C 7.85054 25.3459 12.3591 24.6687 13.7368 19.1288 C 13.7368 24.4896 19.2947 25.901 19.2947 25.901 C 14.822 26.865 13.7976 29.2882 13.7368 30.6137 Z" stroke-linecap="round"/>
</g>
		<g transform="matrix(1 0 0 1 -0.2336 0.3152)">
<path style="stroke: #002471; stroke-width: 1.63; stroke-dasharray: none; stroke-linecap: butt; stroke-dashoffset: 0; stroke-linejoin: miter; stroke-miterlimit: 4; is-custom-font: none; font-file-url: none; fill: none; fill-rule: nonzero; opacity: 1;" transform=" translate(-13.2664, -18.8153)" d="M 13.7368 35.6934 L 13.7368 30.6137 M 13.7368 30.6137 C 13.5396 28.9442 11.938 25.5171 7.10924 25.1648 C 6.51333 25.1214 5.97182 25.0542 5.48029 24.9683 M 13.7368 30.6137 C 13.7976 29.2882 14.822 26.865 19.2947 25.901 M 19.2947 25.901 C 23.595 25.3121 25.2054 23.0876 25.4997 22.4004 M 19.2947 25.901 C 19.2947 25.901 13.7368 24.4896 13.7368 19.1288 M 13.7368 19.1288 L 13.7368 1.93711 M 13.7368 19.1288 C 12.3591 24.6687 7.85054 25.3459 5.48029 24.9683 M 5.48029 24.9683 C 5.37064 24.9491 5.26349 24.929 5.15877 24.908 M 5.48029 24.9683 C 5.36814 24.9504 5.26078 24.9302 5.15877 24.908 M 5.15877 24.908 C 1.92888 24.2604 1.0546 22.4553 1.0332 21.6842" stroke-linecap="round"/>
</g>
		<g transform="matrix(1 0 0 1 -0.2006 3.5111)">
<path style="stroke: #002471; stroke-width: 1.63; stroke-dasharray: none; stroke-linecap: butt; stroke-dashoffset: 0; stroke-linejoin: miter; stroke-miterlimit: 4; is-custom-font: none; font-file-url: none; fill: none; fill-rule: nonzero; opacity: 1;" transform=" translate(-13.2993, -22.011)" d="M 25.626 22.3936 L 0.972656 21.6285" stroke-linecap="round"/>
</g>
		<g transform="matrix(1 0 0 1 -3.9544 -6.8912)">
<path style="stroke: #002471; stroke-width: 0.63; stroke-dasharray: none; stroke-linecap: round; stroke-dashoffset: 0; stroke-linejoin: miter; stroke-miterlimit: 4; is-custom-font: none; font-file-url: none; fill: none; fill-rule: nonzero; opacity: 1;" transform=" translate(-9.5455, -11.6088)" d="M 7.26367 12.1426 C 7.58764 11.8438 8.95393 11.212 11.8274 11.075" stroke-linecap="round"/>
</g>
		<g transform="matrix(1 0 0 1 4.3021 -6.6978)">
<path style="stroke: #002471; stroke-width: 0.63; stroke-dasharray: none; stroke-linecap: round; stroke-dashoffset: 0; stroke-linejoin: miter; stroke-miterlimit: 4; is-custom-font: none; font-file-url: none; fill: none; fill-rule: nonzero; opacity: 1;" transform=" translate(-17.8022, -11.8022)" d="M 20.084 12.3359 C 19.76 12.0372 18.3937 11.4054 15.5203 11.2684" stroke-linecap="round"/>
</g>
		<g transform="matrix(1 0 0 1 -4.4756 -8.6883)">
<path style="stroke: #002471; stroke-width: 0.63; stroke-dasharray: none; stroke-linecap: round; stroke-dashoffset: 0; stroke-linejoin: round; stroke-miterlimit: 4; is-custom-font: none; font-file-url: none; fill: none; fill-rule: nonzero; opacity: 1;" transform=" translate(-9.0243, -9.8117)" d="M 6.97266 10.4678 C 7.73401 10.3707 9.62058 10.2347 11.076 10.4678 C 10.242 10.3054 8.41382 9.81569 7.77331 9.1556" stroke-linecap="round"/>
</g>
		<g transform="matrix(1 0 0 1 4.8234 -8.4949)">
<path style="stroke: #002471; stroke-width: 0.63; stroke-dasharray: none; stroke-linecap: round; stroke-dashoffset: 0; stroke-linejoin: round; stroke-miterlimit: 4; is-custom-font: none; font-file-url: none; fill: none; fill-rule: nonzero; opacity: 1;" transform=" translate(-18.3233, -10.005)" d="M 20.375 10.6611 C 19.6136 10.564 17.7271 10.4281 16.2717 10.6611 C 17.1057 10.4988 18.9338 10.009 19.5744 9.34896" stroke-linecap="round"/>
</g>
		<g transform="matrix(1 0 0 1 0.5015 -10.5628)">
<path style="stroke: #002471; stroke-width: 0.63; stroke-dasharray: none; stroke-linecap: round; stroke-dashoffset: 0; stroke-linejoin: round; stroke-miterlimit: 4; is-custom-font: none; font-file-url: none; fill: none; fill-rule: nonzero; opacity: 1;" transform=" translate(-14.0014, -7.9372)" d="M 12.0218 9.03516 C 11.5614 8.68673 11.2376 7.77147 13.6253 6.89787 C 13.844 6.75257 14.6648 6.78711 16.1985 8.08772 C 16.2793 8.16111 16.3925 8.40487 16.1985 8.79274" stroke-linecap="round"/>
</g>
		<g transform="matrix(1 0 0 1 0.1358 -13.3363)">
<path style="stroke: #002471; stroke-width: 0.63; stroke-dasharray: none; stroke-linecap: round; stroke-dashoffset: 0; stroke-linejoin: round; stroke-miterlimit: 4; is-custom-font: none; font-file-url: none; fill: none; fill-rule: nonzero; opacity: 1;" transform=" translate(-13.6358, -5.1637)" d="M 16.1729 5.49023 C 16.1884 5.296 16.0159 4.91733 15.201 4.95647 C 14.1824 5.0054 11.7271 4.66512 11.0977 4.95647" stroke-linecap="round"/>
</g>
		<g transform="matrix(1 0 0 1 0.0995 -14.553)">
<path style="stroke: #002471; stroke-width: 0.63; stroke-dasharray: none; stroke-linecap: round; stroke-dashoffset: 0; stroke-linejoin: round; stroke-miterlimit: 4; is-custom-font: none; font-file-url: none; fill: none; fill-rule: nonzero; opacity: 1;" transform=" translate(-13.5995, -3.947)" d="M 12.0215 4.15625 C 12.4989 3.84044 13.7985 3.3983 15.1774 4.15625" stroke-linecap="round"/>
</g>
</g>
</g>
</svg>