<svg width="27" height="37" viewBox="0 0 27 37" fill="none" xmlns="http://www.w3.org/2000/svg">
<path d="M1.36157 27.7293C2.67685 33.8235 10.1367 35.6025 13.7426 35.7344C17.3677 35.5709 23.961 33.7627 25.2632 27.7293C26.9134 20.0831 23.2549 15.4149 22.6788 12.2212C22.1028 9.02748 22.174 6.26079 19.5185 4.61056C17.0432 3.0723 15.4278 1.76014 13.3124 1.74048C11.1969 1.76014 9.58155 3.0723 7.10623 4.61056C4.45074 6.26079 4.52191 9.02748 3.94589 12.2212C3.36987 15.4149 -0.288654 20.0831 1.36157 27.7293Z" fill="white"/>
<path d="M13.7828 35.7358C10.1924 35.6157 2.68175 33.8463 1.36157 27.7293C-0.288654 20.0831 3.36987 15.4149 3.94589 12.2212C4.52191 9.02748 4.45074 6.26079 7.10623 4.61056C9.76171 2.96034 11.4275 1.57032 13.7828 1.75714M13.5937 35.7402C17.184 35.6201 23.943 33.8463 25.2632 27.7293C26.9134 20.0831 23.2549 15.4149 22.6788 12.2212C22.1028 9.02748 22.174 6.26079 19.5185 4.61056C16.863 2.96034 15.1972 1.57032 12.842 1.75714" stroke="#002471" stroke-width="1.63"/>
<path d="M13.7368 30.6137C13.5396 28.9442 11.938 25.5171 7.10924 25.1648C6.51333 25.1214 5.97182 25.0542 5.48029 24.9683C5.36814 24.9504 5.26078 24.9302 5.15877 24.908C5.26349 24.929 5.37065 24.9491 5.48029 24.9683C7.85054 25.3459 12.3591 24.6687 13.7368 19.1288C13.7368 24.4896 19.2947 25.901 19.2947 25.901C14.822 26.865 13.7976 29.2882 13.7368 30.6137Z" fill="#002471"/>
<path d="M13.7368 35.6934L13.7368 30.6137M13.7368 30.6137C13.5396 28.9442 11.938 25.5171 7.10924 25.1648C6.51333 25.1214 5.97182 25.0542 5.48029 24.9683M13.7368 30.6137C13.7976 29.2882 14.822 26.865 19.2947 25.901M19.2947 25.901C23.595 25.3121 25.2054 23.0876 25.4997 22.4004M19.2947 25.901C19.2947 25.901 13.7368 24.4896 13.7368 19.1288M13.7368 19.1288L13.7368 1.93711M13.7368 19.1288C12.3591 24.6687 7.85054 25.3459 5.48029 24.9683M5.48029 24.9683C5.37064 24.9491 5.26349 24.929 5.15877 24.908M5.48029 24.9683C5.36814 24.9504 5.26078 24.9302 5.15877 24.908M5.15877 24.908C1.92888 24.2604 1.0546 22.4553 1.0332 21.6842" stroke="#002471" stroke-width="1.63"/>
<path d="M25.626 22.3936L0.972656 21.6285" stroke="#002471" stroke-width="1.63"/>
<path d="M7.26367 12.1426C7.58764 11.8438 8.95393 11.212 11.8274 11.075" stroke="#002471" stroke-width="0.63" stroke-linecap="round"/>
<path d="M20.084 12.3359C19.76 12.0372 18.3937 11.4054 15.5203 11.2684" stroke="#002471" stroke-width="0.63" stroke-linecap="round"/>
<path d="M6.97266 10.4678C7.73401 10.3707 9.62058 10.2347 11.076 10.4678C10.242 10.3054 8.41382 9.81569 7.77331 9.1556" stroke="#002471" stroke-width="0.63" stroke-linecap="round" stroke-linejoin="round"/>
<path d="M20.375 10.6611C19.6136 10.564 17.7271 10.4281 16.2717 10.6611C17.1057 10.4988 18.9338 10.009 19.5744 9.34896" stroke="#002471" stroke-width="0.63" stroke-linecap="round" stroke-linejoin="round"/>
<path d="M12.0218 9.03516C11.5614 8.68673 11.2376 7.77147 13.6253 6.89787C13.844 6.75257 14.6648 6.78711 16.1985 8.08772C16.2793 8.16111 16.3925 8.40487 16.1985 8.79274" stroke="#002471" stroke-width="0.63" stroke-linecap="round" stroke-linejoin="round"/>
<path d="M16.1729 5.49023C16.1884 5.296 16.0159 4.91733 15.201 4.95647C14.1824 5.0054 11.7271 4.66512 11.0977 4.95647" stroke="#002471" stroke-width="0.63" stroke-linecap="round" stroke-linejoin="round"/>
<path d="M12.0215 4.15625C12.4989 3.84044 13.7985 3.3983 15.1774 4.15625" stroke="#002471" stroke-width="0.63" stroke-linecap="round" stroke-linejoin="round"/>
</svg>
