<svg width="31" height="37" viewBox="0 0 31 37" fill="none" xmlns="http://www.w3.org/2000/svg">
<path d="M3.51215 24.1928C4.96483 33.3541 12.12 35.5771 15.5176 35.5436C18.9151 35.5771 26.0703 33.3541 27.523 24.1928C27.7251 22.8628 28.0081 19.8907 27.523 18.6418C28.061 19.3321 29.1774 20.0872 29.3391 17.5844C29.5008 15.0817 27.3208 12.7746 26.2106 11.9339C26.1433 10.6382 25.292 7.49186 22.426 5.2727C18.8447 2.4997 17.0317 1.83993 15.5176 1.74006C14.0034 1.83993 12.1904 2.4997 8.60912 5.2727C5.74312 7.49186 4.89187 10.6382 4.82449 11.9339C3.71429 12.7746 1.53431 15.0817 1.69602 17.5844C1.85773 20.0872 2.97415 19.3321 3.51215 18.6418C3.02702 19.8907 3.31001 22.8628 3.51215 24.1928Z" fill="white"/>
<path d="M15.5191 35.5436C15.5186 35.5436 15.5181 35.5436 15.5176 35.5436M15.5176 35.5436C12.12 35.5771 4.96483 33.3541 3.51215 24.1928C3.31001 22.8628 3.02702 19.8907 3.51215 18.6418C2.97415 19.3321 1.85773 20.0872 1.69602 17.5844C1.53431 15.0817 3.71429 12.7746 4.82449 11.9339C4.89187 10.6382 5.74312 7.49186 8.60912 5.2727C12.1904 2.4997 14.0034 1.83993 15.5176 1.74006M15.5176 35.5436C15.517 35.5436 15.5165 35.5436 15.516 35.5436M15.5176 35.5436C18.9151 35.5771 26.0703 33.3541 27.523 24.1928C27.7251 22.8628 28.0081 19.8907 27.523 18.6418C28.061 19.3321 29.1774 20.0872 29.3391 17.5844C29.5008 15.0817 27.3208 12.7746 26.2106 11.9339C26.1433 10.6382 25.292 7.49186 22.426 5.2727C18.8447 2.4997 17.0317 1.83993 15.5176 1.74006M15.5176 1.74006C15.5181 1.74003 15.5186 1.73999 15.5191 1.73996M15.5176 1.74006C15.517 1.74003 15.5165 1.73999 15.516 1.73996M19.7547 34.7101C18.6797 34.3473 16.4067 32.629 15.9141 28.6584M15.9141 28.6584L15.9141 24.3514M15.9141 28.6584C15.5627 30.6155 14.1813 34.5577 11.3426 34.702M15.9141 24.3514L15.9141 1.80838M15.9141 24.3514L3.61166 24.3514M15.9141 24.3514L27.5105 24.3514" stroke="#B874C6" stroke-width="1.63" stroke-linecap="round" stroke-linejoin="round"/>
<path d="M19.8537 34.7416C16.1692 36.5502 12.4264 35.4952 11.0156 34.7416C14.5533 34.5003 15.7487 30.5008 15.9042 28.5313C16.3073 32.5367 18.7051 34.3404 19.8537 34.7416Z" fill="#B874C6"/>
<path d="M13.3335 17.1369C12.8846 17.0073 11.6044 16.852 10.0744 17.2675C9.85777 17.311 9.35481 17.372 9.07617 17.2675" stroke="#B874C6" stroke-width="0.63" stroke-linecap="round"/>
<path d="M8.26953 15.1367C9.61608 14.9335 12.3962 14.6491 12.7445 15.1367C12.332 14.7096 11.2332 13.8163 10.1385 13.6596" stroke="#B874C6" stroke-width="0.63" stroke-linecap="round" stroke-linejoin="round"/>
<path d="M17.6802 17.1369C18.129 17.0073 19.4092 16.852 20.9393 17.2675C21.1559 17.311 21.6589 17.372 21.9375 17.2675" stroke="#B874C6" stroke-width="0.63" stroke-linecap="round"/>
<path d="M22.7441 15.1367C21.3976 14.9335 18.6174 14.6491 18.2691 15.1367C18.6817 14.7096 19.7805 13.8163 20.8751 13.6596" stroke="#B874C6" stroke-width="0.63" stroke-linecap="round" stroke-linejoin="round"/>
<path d="M13.4208 12.9202C13.059 12.6372 12.5526 11.9325 13.4208 11.3777C13.9505 11.4492 15.092 11.4971 15.4204 11.1165C15.8309 10.6407 18.1353 11.6203 18.1571 12.1178C18.1745 12.5159 18.1643 12.9057 18.1571 13.0508" stroke="#B874C6" stroke-width="0.63" stroke-linecap="round" stroke-linejoin="round"/>
<path d="M18.6785 8.06569C18.4176 8.21732 18.0239 8.41243 17.5678 8.58635M12.6797 7.73294C13.5547 7.95621 13.4844 8.2727 13.9858 8.58635M13.9858 8.58635C14.1758 8.7052 14.4479 8.82363 14.8845 8.93644C15.7045 9.14824 16.7392 8.90228 17.5678 8.58635M13.9858 8.58635C14.5795 8.11099 16.127 7.44548 17.5678 8.58635" stroke="#B874C6" stroke-width="0.63" stroke-linecap="round" stroke-linejoin="round"/>
<path d="M13.9355 6.75607C14.6964 6.30307 16.6025 5.72548 18.14 7.03906" stroke="#B874C6" stroke-width="0.63" stroke-linecap="round" stroke-linejoin="round"/>
</svg>
