<svg xmlns="http://www.w3.org/2000/svg" xmlns:xlink="http://www.w3.org/1999/xlink" version="1.1" width="42" height="42" viewBox="0 0 1000 1000" xml:space="preserve">
<desc>Created with Fabric.js 3.5.0</desc>
<defs>
</defs>
<rect x="0" y="0" width="100%" height="100%" fill="rgba(255,255,255,0)"/>
<g transform="matrix(-19.1138 -15.4386 15.4386 -19.1138 500.0003 500.0006)" id="530017">
<g style="" vector-effect="non-scaling-stroke">
		<g transform="matrix(1 0 0 1 0.0176 0.1421)">
<path style="stroke: none; stroke-width: 1; stroke-dasharray: none; stroke-linecap: butt; stroke-dashoffset: 0; stroke-linejoin: miter; stroke-miterlimit: 4; is-custom-font: none; font-file-url: none; fill: rgb(255,255,255); fill-rule: nonzero; opacity: 1;" transform=" translate(-15.5176, -18.642)" d="M 3.51215 24.1928 C 4.96483 33.3541 12.12 35.5771 15.5176 35.5436 C 18.9151 35.5771 26.0703 33.3541 27.523 24.1928 C 27.7251 22.8628 28.0081 19.8907 27.523 18.6418 C 28.061 19.3321 29.1774 20.0872 29.3391 17.5844 C 29.5008 15.0817 27.3208 12.7746 26.2106 11.9339 C 26.1433 10.6382 25.292 7.49186 22.426 5.2727 C 18.8447 2.4997 17.0317 1.83993 15.5176 1.74006 C 14.0034 1.83993 12.1904 2.4997 8.60912 5.2727 C 5.74312 7.49186 4.89187 10.6382 4.82449 11.9339 C 3.71429 12.7746 1.53431 15.0817 1.69602 17.5844 C 1.85773 20.0872 2.97415 19.3321 3.51215 18.6418 C 3.02702 19.8907 3.31001 22.8628 3.51215 24.1928 Z" stroke-linecap="round"/>
</g>
		<g transform="matrix(1 0 0 1 0.0176 0.142)">
<path style="stroke: #002471; stroke-width: 1.63; stroke-dasharray: none; stroke-linecap: round; stroke-dashoffset: 0; stroke-linejoin: round; stroke-miterlimit: 4; is-custom-font: none; font-file-url: none; fill: none; fill-rule: nonzero; opacity: 1;" transform=" translate(-15.5176, -18.642)" d="M 15.5191 35.5436 C 15.5186 35.5436 15.5181 35.5436 15.5176 35.5436 M 15.5176 35.5436 C 12.12 35.5771 4.96483 33.3541 3.51215 24.1928 C 3.31001 22.8628 3.02702 19.8907 3.51215 18.6418 C 2.97415 19.3321 1.85773 20.0872 1.69602 17.5844 C 1.53431 15.0817 3.71429 12.7746 4.82449 11.9339 C 4.89187 10.6382 5.74312 7.49186 8.60912 5.2727 C 12.1904 2.4997 14.0034 1.83993 15.5176 1.74006 M 15.5176 35.5436 C 15.517 35.5436 15.5165 35.5436 15.516 35.5436 M 15.5176 35.5436 C 18.9151 35.5771 26.0703 33.3541 27.523 24.1928 C 27.7251 22.8628 28.0081 19.8907 27.523 18.6418 C 28.061 19.3321 29.1774 20.0872 29.3391 17.5844 C 29.5008 15.0817 27.3208 12.7746 26.2106 11.9339 C 26.1433 10.6382 25.292 7.49186 22.426 5.2727 C 18.8447 2.4997 17.0317 1.83993 15.5176 1.74006 M 15.5176 1.74006 C 15.5181 1.74003 15.5186 1.73999 15.5191 1.73996 M 15.5176 1.74006 C 15.517 1.74003 15.5165 1.73999 15.516 1.73996 M 19.7547 34.7101 C 18.6797 34.3473 16.4067 32.629 15.9141 28.6584 M 15.9141 28.6584 L 15.9141 24.3514 M 15.9141 28.6584 C 15.5627 30.6155 14.1813 34.5577 11.3426 34.702 M 15.9141 24.3514 L 15.9141 1.80838 M 15.9141 24.3514 L 3.61166 24.3514 M 15.9141 24.3514 L 27.5105 24.3514" stroke-linecap="round"/>
</g>
		<g transform="matrix(1 0 0 1 -0.0653 13.6358)">
<path style="stroke: none; stroke-width: 1; stroke-dasharray: none; stroke-linecap: butt; stroke-dashoffset: 0; stroke-linejoin: miter; stroke-miterlimit: 4; is-custom-font: none; font-file-url: none; fill: #002471; fill-rule: nonzero; opacity: 1;" transform=" translate(-15.4346, -32.1358)" d="M 19.8537 34.7416 C 16.1692 36.5502 12.4264 35.4952 11.0156 34.7416 C 14.5533 34.5003 15.7487 30.5008 15.9042 28.5313 C 16.3073 32.5367 18.7051 34.3404 19.8537 34.7416 Z" stroke-linecap="round"/>
</g>
		<g transform="matrix(1 0 0 1 -4.2951 -1.3385)">
<path style="stroke: #002471; stroke-width: 0.63; stroke-dasharray: none; stroke-linecap: round; stroke-dashoffset: 0; stroke-linejoin: miter; stroke-miterlimit: 4; is-custom-font: none; font-file-url: none; fill: none; fill-rule: nonzero; opacity: 1;" transform=" translate(-11.2048, -17.1614)" d="M 13.3335 17.1369 C 12.8846 17.0073 11.6044 16.852 10.0744 17.2675 C 9.85777 17.311 9.35481 17.372 9.07617 17.2675" stroke-linecap="round"/>
</g>
		<g transform="matrix(1 0 0 1 -4.993 -4.1019)">
<path style="stroke: #002471; stroke-width: 0.63; stroke-dasharray: none; stroke-linecap: round; stroke-dashoffset: 0; stroke-linejoin: round; stroke-miterlimit: 4; is-custom-font: none; font-file-url: none; fill: none; fill-rule: nonzero; opacity: 1;" transform=" translate(-10.507, -14.3981)" d="M 8.26953 15.1367 C 9.61608 14.9335 12.3962 14.6491 12.7445 15.1367 C 12.332 14.7096 11.2332 13.8163 10.1385 13.6596" stroke-linecap="round"/>
</g>
		<g transform="matrix(1 0 0 1 4.3089 -1.3385)">
<path style="stroke: #002471; stroke-width: 0.63; stroke-dasharray: none; stroke-linecap: round; stroke-dashoffset: 0; stroke-linejoin: miter; stroke-miterlimit: 4; is-custom-font: none; font-file-url: none; fill: none; fill-rule: nonzero; opacity: 1;" transform=" translate(-19.8088, -17.1614)" d="M 17.6802 17.1369 C 18.129 17.0073 19.4092 16.852 20.9393 17.2675 C 21.1559 17.311 21.6589 17.372 21.9375 17.2675" stroke-linecap="round"/>
</g>
		<g transform="matrix(1 0 0 1 5.0066 -4.1019)">
<path style="stroke: #002471; stroke-width: 0.63; stroke-dasharray: none; stroke-linecap: round; stroke-dashoffset: 0; stroke-linejoin: round; stroke-miterlimit: 4; is-custom-font: none; font-file-url: none; fill: none; fill-rule: nonzero; opacity: 1;" transform=" translate(-20.5066, -14.3981)" d="M 22.7441 15.1367 C 21.3976 14.9335 18.6174 14.6491 18.2691 15.1367 C 18.6817 14.7096 19.7805 13.8163 20.8751 13.6596" stroke-linecap="round"/>
</g>
		<g transform="matrix(1 0 0 1 0.054 -6.4798)">
<path style="stroke: #002471; stroke-width: 0.63; stroke-dasharray: none; stroke-linecap: round; stroke-dashoffset: 0; stroke-linejoin: round; stroke-miterlimit: 4; is-custom-font: none; font-file-url: none; fill: none; fill-rule: nonzero; opacity: 1;" transform=" translate(-15.554, -12.0202)" d="M 13.4208 12.9202 C 13.059 12.6372 12.5526 11.9325 13.4208 11.3777 C 13.9505 11.4492 15.092 11.4971 15.4204 11.1165 C 15.8309 10.6407 18.1353 11.6203 18.1571 12.1178 C 18.1745 12.5159 18.1643 12.9057 18.1571 13.0508" stroke-linecap="round"/>
</g>
		<g transform="matrix(1 0 0 1 0.1791 -10.1258)">
<path style="stroke: #002471; stroke-width: 0.63; stroke-dasharray: none; stroke-linecap: round; stroke-dashoffset: 0; stroke-linejoin: round; stroke-miterlimit: 4; is-custom-font: none; font-file-url: none; fill: none; fill-rule: nonzero; opacity: 1;" transform=" translate(-15.6791, -8.3743)" d="M 18.6785 8.06569 C 18.4176 8.21732 18.0239 8.41243 17.5678 8.58635 M 12.6797 7.73294 C 13.5547 7.95621 13.4844 8.2727 13.9858 8.58635 M 13.9858 8.58635 C 14.1758 8.7052 14.4479 8.82363 14.8845 8.93644 C 15.7045 9.14824 16.7392 8.90228 17.5678 8.58635 M 13.9858 8.58635 C 14.5795 8.11099 16.127 7.44548 17.5678 8.58635" stroke-linecap="round"/>
</g>
		<g transform="matrix(1 0 0 1 0.5378 -11.8652)">
<path style="stroke: #002471; stroke-width: 0.63; stroke-dasharray: none; stroke-linecap: round; stroke-dashoffset: 0; stroke-linejoin: round; stroke-miterlimit: 4; is-custom-font: none; font-file-url: none; fill: none; fill-rule: nonzero; opacity: 1;" transform=" translate(-16.0377, -6.6348)" d="M 13.9355 6.75607 C 14.6964 6.30307 16.6025 5.72548 18.14 7.03906" stroke-linecap="round"/>
</g>
</g>
</g>
</svg>