<svg xmlns="http://www.w3.org/2000/svg" xmlns:xlink="http://www.w3.org/1999/xlink" version="1.1" width="38" height="42" viewBox="0 0 1000 1000" xml:space="preserve">
<desc>Created with Fabric.js 3.5.0</desc>
<defs>
</defs>
<rect x="0" y="0" width="100%" height="100%" fill="rgba(255,255,255,0)"/>
<g transform="matrix(0 -24.57 24.57 0 499.9994 499.9995)" id="897758">
<g style="" vector-effect="non-scaling-stroke">
		<g transform="matrix(1 0 0 1 7.947 -7.649)">
<path style="stroke: #002471; stroke-width: 1.69; stroke-dasharray: none; stroke-linecap: butt; stroke-dashoffset: 0; stroke-linejoin: miter; stroke-miterlimit: 4; is-custom-font: none; font-file-url: none; fill: rgb(255,255,255); fill-rule: nonzero; opacity: 1;" transform=" translate(-24.947, -10.851)" d="M 24.6888 4.09425 C 21.8795 1.49511 18.5434 1.65326 17.2266 2.05722 V 15.4654 C 19.8585 14.3603 29.1455 19.9159 30.9632 19.8747 C 33.2355 19.8231 33.2355 14.3051 30.9632 11.1078 C 28.691 7.91041 28.2004 7.34317 24.6888 4.09425 Z" stroke-linecap="round"/>
</g>
		<g transform="matrix(1 0 0 1 -7.4939 -7.649)">
<path style="stroke: #002471; stroke-width: 1.69; stroke-dasharray: none; stroke-linecap: butt; stroke-dashoffset: 0; stroke-linejoin: miter; stroke-miterlimit: 4; is-custom-font: none; font-file-url: none; fill: rgb(255,255,255); fill-rule: nonzero; opacity: 1;" transform=" translate(-9.5062, -10.851)" d="M 9.76435 4.09425 C 12.5737 1.49511 15.9097 1.65326 17.2266 2.05722 V 15.4654 C 14.5946 14.3603 5.30767 19.9159 3.48989 19.8747 C 1.21765 19.8231 1.21765 14.3051 3.48989 11.1078 C 5.76212 7.91041 6.25271 7.34317 9.76435 4.09425 Z" stroke-linecap="round"/>
</g>
		<g transform="matrix(1 0 0 1 8.082 -1.6832)">
<path style="stroke: #002471; stroke-width: 1.69; stroke-dasharray: none; stroke-linecap: butt; stroke-dashoffset: 0; stroke-linejoin: miter; stroke-miterlimit: 4; is-custom-font: none; font-file-url: none; fill: rgb(255,255,255); fill-rule: nonzero; opacity: 1;" transform=" translate(-25.082, -16.8167)" d="M 17.2266 17.6808 V 21.0778 H 32.4418 L 32.9181 17.368 C 33.1223 15.6823 31.7615 12.2866 25.778 12.5727 C 19.7946 12.8587 17.5839 16.0973 17.2266 17.6808 Z" stroke-linecap="round"/>
</g>
		<g transform="matrix(1 0 0 1 -7.7088 -1.6832)">
<path style="stroke: #002471; stroke-width: 1.69; stroke-dasharray: none; stroke-linecap: butt; stroke-dashoffset: 0; stroke-linejoin: miter; stroke-miterlimit: 4; is-custom-font: none; font-file-url: none; fill: rgb(255,255,255); fill-rule: nonzero; opacity: 1;" transform=" translate(-9.2911, -16.8167)" d="M 17.1465 17.6808 V 21.0778 H 1.93123 L 1.45497 17.368 C 1.25076 15.6823 2.61154 12.2866 8.59501 12.5727 C 14.5785 12.8587 16.7891 16.0973 17.1465 17.6808 Z" stroke-linecap="round"/>
</g>
		<g transform="matrix(1 0 0 1 -0.1602 15.5475)">
<path style="stroke: #002471; stroke-width: 1.69; stroke-dasharray: none; stroke-linecap: butt; stroke-dashoffset: 0; stroke-linejoin: miter; stroke-miterlimit: 4; is-custom-font: none; font-file-url: none; fill: rgb(255,255,255); fill-rule: nonzero; opacity: 1;" transform=" translate(-16.8397, -34.0474)" d="M 24.9236 32.3555 H 8.75586 C 9.52456 33.4835 12.2651 35.7394 17.0779 35.7394 C 21.8906 35.7394 24.3137 33.4835 24.9236 32.3555 Z" stroke-linecap="round"/>
</g>
		<g transform="matrix(1 0 0 1 7.9341 8.5103)">
<path style="stroke: #002471; stroke-width: 1.69; stroke-dasharray: none; stroke-linecap: butt; stroke-dashoffset: 0; stroke-linejoin: miter; stroke-miterlimit: 4; is-custom-font: none; font-file-url: none; fill: rgb(255,255,255); fill-rule: nonzero; opacity: 1;" transform=" translate(-24.9341, -27.0103)" d="M 32.6671 19.4971 H 17.2012 V 33.6345 C 19.5323 34.5118 25.4229 35.8654 28.3807 31.2782 C 31.4288 27.047 32.5083 21.6611 32.6671 19.4971 Z" stroke-linecap="round"/>
</g>
		<g transform="matrix(1 0 0 1 -7.5317 8.4849)">
<path style="stroke: #002471; stroke-width: 1.69; stroke-dasharray: none; stroke-linecap: butt; stroke-dashoffset: 0; stroke-linejoin: miter; stroke-miterlimit: 4; is-custom-font: none; font-file-url: none; fill: rgb(255,255,255); fill-rule: nonzero; opacity: 1;" transform=" translate(-9.4682, -26.9849)" d="M 1.73526 19.4717 H 17.2012 V 33.6091 C 14.87 34.4864 8.97942 35.84 6.0216 31.2528 C 2.97353 27.0217 1.89401 21.6357 1.73526 19.4717 Z" stroke-linecap="round"/>
</g>
		<g transform="matrix(1 0 0 1 0.1875 -3.6729)">
<path style="stroke: none; stroke-width: 1; stroke-dasharray: none; stroke-linecap: butt; stroke-dashoffset: 0; stroke-linejoin: miter; stroke-miterlimit: 4; is-custom-font: none; font-file-url: none; fill: #002471; fill-rule: nonzero; opacity: 1;" transform=" translate(-17.1875, -14.8271)" d="M 21.4375 13.3271 H 12.9375 L 17.4375 16.3271 L 21.4375 13.3271 Z" stroke-linecap="round"/>
</g>
</g>
</g>
</svg>