<svg width="34" height="37" viewBox="0 0 34 37" fill="none" xmlns="http://www.w3.org/2000/svg">
<path d="M24.6888 4.09425C21.8795 1.49511 18.5434 1.65326 17.2266 2.05722V15.4654C19.8585 14.3603 29.1455 19.9159 30.9632 19.8747C33.2355 19.8231 33.2355 14.3051 30.9632 11.1078C28.691 7.91041 28.2004 7.34317 24.6888 4.09425Z" fill="white" stroke="#002471" stroke-width="1.69"/>
<path d="M9.76435 4.09425C12.5737 1.49511 15.9097 1.65326 17.2266 2.05722V15.4654C14.5946 14.3603 5.30767 19.9159 3.48989 19.8747C1.21765 19.8231 1.21765 14.3051 3.48989 11.1078C5.76212 7.91041 6.25271 7.34317 9.76435 4.09425Z" fill="white" stroke="#002471" stroke-width="1.69"/>
<path d="M17.2266 17.6808V21.0778H32.4418L32.9181 17.368C33.1223 15.6823 31.7615 12.2866 25.778 12.5727C19.7946 12.8587 17.5839 16.0973 17.2266 17.6808Z" fill="white" stroke="#002471" stroke-width="1.69"/>
<path d="M17.1465 17.6808V21.0778H1.93123L1.45497 17.368C1.25076 15.6823 2.61154 12.2866 8.59501 12.5727C14.5785 12.8587 16.7891 16.0973 17.1465 17.6808Z" fill="white" stroke="#002471" stroke-width="1.69"/>
<path d="M24.9236 32.3555H8.75586C9.52456 33.4835 12.2651 35.7394 17.0779 35.7394C21.8906 35.7394 24.3137 33.4835 24.9236 32.3555Z" fill="white" stroke="#002471" stroke-width="1.69"/>
<path d="M32.6671 19.4971H17.2012V33.6345C19.5323 34.5118 25.4229 35.8654 28.3807 31.2782C31.4288 27.047 32.5083 21.6611 32.6671 19.4971Z" fill="white" stroke="#002471" stroke-width="1.69"/>
<path d="M1.73526 19.4717H17.2012V33.6091C14.87 34.4864 8.97942 35.84 6.0216 31.2528C2.97353 27.0217 1.89401 21.6357 1.73526 19.4717Z" fill="white" stroke="#002471" stroke-width="1.69"/>
<path d="M21.4375 13.3271H12.9375L17.4375 16.3271L21.4375 13.3271Z" fill="#002471"/>
</svg>
