<svg width="35" height="37" viewBox="0 0 35 37" fill="none" xmlns="http://www.w3.org/2000/svg">
<path d="M17.0991 0.740234C26.3507 0.740233 33.8505 8.79911 33.8505 18.7402C33.8505 28.6814 26.3507 36.7402 17.0991 36.7402C7.84753 36.7402 0.347656 28.6814 0.347655 18.7402C0.347655 8.79911 7.84753 0.740234 17.0991 0.740234Z" fill="#B874C6"/>
<path d="M12.4157 35.4534C7.9129 33.0658 0.148554 26.3725 1.87634 15.4442L1.88948 15.4101C3.05911 12.3748 4.33998 9.05075 10.1836 11.0858C9.17579 10.6698 8.09656 9.93078 7.7048 7.66669C7.22506 4.89408 10.1703 1.35149 15.7937 1.51359C22.823 1.71622 30.9321 6.38328 32.3494 11.7225C33.7667 17.0617 33.4293 21.999 32.8893 22.3368C32.2819 26.1704 30.2943 29.3893 29.3764 30.5195C26.0018 34.5423 21.5744 35.9353 19.7824 36.1289C16.092 36.6692 13.3336 35.9037 12.4157 35.4534Z" fill="white"/>
<path d="M10.1836 11.0858C4.33998 9.05075 3.05911 12.3748 1.88948 15.4101L1.87634 15.4442C0.148554 26.3725 7.9129 33.0658 12.4157 35.4534C13.3336 35.9037 16.092 36.6692 19.7824 36.1289M10.1836 11.0858C10.3973 11.1602 10.6171 11.2418 10.8432 11.3309C10.6326 11.2564 10.4099 11.1792 10.1836 11.0858ZM10.1836 11.0858C9.17579 10.6698 8.09656 9.93078 7.7048 7.66669C7.22506 4.89408 10.1703 1.35149 15.7937 1.51359C22.823 1.71622 30.9321 6.38328 32.3494 11.7225C33.7667 17.0617 33.4293 21.999 32.8893 22.3368M32.8893 22.3368C32.4574 22.6069 24.7813 19.5202 20.9973 17.9431M32.8893 22.3368C32.2819 26.1704 30.2943 29.3893 29.3764 30.5195M20.9973 17.9431C20.7487 17.0876 20.5762 15.2273 21.8747 14.6302C23.4979 13.8838 26.5384 14.7619 27.4833 14.2891C28.2048 13.928 29.4794 12.5015 29.9213 11.5165M20.9973 17.9431C20.9973 19.3275 21.3892 22.446 21.5236 25.7848M21.5236 25.7848C21.6847 29.7846 21.4764 34.1005 19.7824 36.1289M21.5236 25.7848C23.1502 27.0478 26.998 29.763 29.3764 30.5195M19.7824 36.1289C21.5744 35.9353 26.0018 34.5423 29.3764 30.5195M12.8475 20.9488C12.2819 23.1802 12.0589 26.1029 12.7532 29.9758M12.8475 20.9488C12.5404 20.8013 11.8758 20.501 11.6733 20.4793C11.4708 20.4577 10.7971 20.6167 10.4855 20.6989M12.8475 20.9488C13.4179 18.6984 14.3367 17.1512 15.0147 16.0418M10.4855 20.6989C10.3381 21.1401 9.90031 21.8903 9.32798 21.3608C8.84045 20.9097 8.51903 19.9599 8.18966 19.1825M10.4855 20.6989C10.6474 20.405 10.8958 19.7114 10.5935 19.2872C10.7802 19.33 11.1827 19.3014 11.2987 18.8448C11.4148 18.3882 11.2976 18.2741 11.2245 18.2741C11.3741 18.2651 11.6733 18.0856 11.6733 17.4399C11.8837 17.2103 12.2726 16.6632 12.1458 16.312M15.0147 16.0418C15.3669 15.4656 15.6541 15.0074 15.7937 14.6302C16.3336 13.1713 16.6058 9.92024 16.6745 8.47709C17.5552 6.18065 20.5923 7.32549 21.8747 8.00091C23.157 8.67634 25.3201 8.88234 26.1334 8.8148C26.9467 8.74726 29.7813 10.0306 30.0513 10.7735C30.1151 10.9491 30.0581 11.2117 29.9213 11.5165M15.0147 16.0418C14.2923 15.372 12.4466 13.9277 10.8432 13.509C8.83888 12.9855 7.15475 17.5852 7.70481 18.2741C7.88001 18.4935 8.03571 18.8192 8.18966 19.1825M8.18966 19.1825C8.41049 18.6253 8.94733 17.602 9.32798 17.9668C9.50121 17.1675 10.0967 15.363 11.0929 14.539M29.9213 11.5165C29.3629 11.5334 28.1359 11.4496 27.6959 10.9795M27.6959 10.9795C27.6745 10.7915 27.602 10.3514 27.4833 10.0947M27.6959 10.9795C27.7268 11.3048 27.618 11.7456 27.4833 12.1356M27.4833 12.1356C27.383 12.4259 27.2684 12.6881 27.1863 12.8538C27.2785 12.9292 27.4995 13.1449 27.7397 13.2422M27.4833 12.1356C27.6655 12.2186 28.1062 12.4053 28.4113 12.4891M17.0991 0.740234C26.3507 0.740234 33.8505 8.79911 33.8505 18.7402C33.8505 28.6814 26.3507 36.7402 17.0991 36.7402C7.84753 36.7402 0.347656 28.6814 0.347655 18.7402C0.347655 8.79911 7.84753 0.740235 17.0991 0.740234Z" stroke="#B874C6" stroke-width="0.520231" stroke-linecap="round" stroke-linejoin="round"/>
</svg>
