<svg xmlns="http://www.w3.org/2000/svg" xmlns:xlink="http://www.w3.org/1999/xlink" version="1.1" width="42" height="42" viewBox="0 0 1000 1000" xml:space="preserve">
<desc>Created with Fabric.js 3.5.0</desc>
<defs>
</defs>
<rect x="0" y="0" width="100%" height="100%" fill="rgba(255,255,255,0)"/>
<g transform="matrix(0 24.57 -24.57 0 500.0005 499.9996)" id="177495">
<g style="" vector-effect="non-scaling-stroke">
		<g transform="matrix(1 0 0 1 -0.4009 0.2402)">
<path style="stroke: none; stroke-width: 1; stroke-dasharray: none; stroke-linecap: butt; stroke-dashoffset: 0; stroke-linejoin: miter; stroke-miterlimit: 4; is-custom-font: none; font-file-url: none; fill: #002471; fill-rule: nonzero; opacity: 1;" transform=" translate(-17.0991, -18.7402)" d="M 17.0991 0.740234 C 26.3507 0.740233 33.8505 8.79911 33.8505 18.7402 C 33.8505 28.6814 26.3507 36.7402 17.0991 36.7402 C 7.84753 36.7402 0.347656 28.6814 0.347655 18.7402 C 0.347655 8.79911 7.84753 0.740234 17.0991 0.740234 Z" stroke-linecap="round"/>
</g>
		<g transform="matrix(1 0 0 1 -0.0075 0.4114)">
<path style="stroke: none; stroke-width: 1; stroke-dasharray: none; stroke-linecap: butt; stroke-dashoffset: 0; stroke-linejoin: miter; stroke-miterlimit: 4; is-custom-font: none; font-file-url: none; fill: rgb(255,255,255); fill-rule: nonzero; opacity: 1;" transform=" translate(-17.4926, -18.9115)" d="M 12.4157 35.4534 C 7.9129 33.0658 0.148554 26.3725 1.87634 15.4442 L 1.88948 15.4101 C 3.05911 12.3748 4.33998 9.05075 10.1836 11.0858 C 9.17579 10.6698 8.09656 9.93078 7.7048 7.66669 C 7.22506 4.89408 10.1703 1.35149 15.7937 1.51359 C 22.823 1.71622 30.9321 6.38328 32.3494 11.7225 C 33.7667 17.0617 33.4293 21.999 32.8893 22.3368 C 32.2819 26.1704 30.2943 29.3893 29.3764 30.5195 C 26.0018 34.5423 21.5744 35.9353 19.7824 36.1289 C 16.092 36.6692 13.3336 35.9037 12.4157 35.4534 Z" stroke-linecap="round"/>
</g>
		<g transform="matrix(1 0 0 1 -0.401 0.2402)">
<path style="stroke: #002471; stroke-width: 0.5202; stroke-dasharray: none; stroke-linecap: round; stroke-dashoffset: 0; stroke-linejoin: round; stroke-miterlimit: 4; is-custom-font: none; font-file-url: none; fill: none; fill-rule: nonzero; opacity: 1;" transform=" translate(-17.0991, -18.7402)" d="M 10.1836 11.0858 C 4.33998 9.05075 3.05911 12.3748 1.88948 15.4101 L 1.87634 15.4442 C 0.148554 26.3725 7.9129 33.0658 12.4157 35.4534 C 13.3336 35.9037 16.092 36.6692 19.7824 36.1289 M 10.1836 11.0858 C 10.3973 11.1602 10.6171 11.2418 10.8432 11.3309 C 10.6326 11.2564 10.4099 11.1792 10.1836 11.0858 Z M 10.1836 11.0858 C 9.17579 10.6698 8.09656 9.93078 7.7048 7.66669 C 7.22506 4.89408 10.1703 1.35149 15.7937 1.51359 C 22.823 1.71622 30.9321 6.38328 32.3494 11.7225 C 33.7667 17.0617 33.4293 21.999 32.8893 22.3368 M 32.8893 22.3368 C 32.4574 22.6069 24.7813 19.5202 20.9973 17.9431 M 32.8893 22.3368 C 32.2819 26.1704 30.2943 29.3893 29.3764 30.5195 M 20.9973 17.9431 C 20.7487 17.0876 20.5762 15.2273 21.8747 14.6302 C 23.4979 13.8838 26.5384 14.7619 27.4833 14.2891 C 28.2048 13.928 29.4794 12.5015 29.9213 11.5165 M 20.9973 17.9431 C 20.9973 19.3275 21.3892 22.446 21.5236 25.7848 M 21.5236 25.7848 C 21.6847 29.7846 21.4764 34.1005 19.7824 36.1289 M 21.5236 25.7848 C 23.1502 27.0478 26.998 29.763 29.3764 30.5195 M 19.7824 36.1289 C 21.5744 35.9353 26.0018 34.5423 29.3764 30.5195 M 12.8475 20.9488 C 12.2819 23.1802 12.0589 26.1029 12.7532 29.9758 M 12.8475 20.9488 C 12.5404 20.8013 11.8758 20.501 11.6733 20.4793 C 11.4708 20.4577 10.7971 20.6167 10.4855 20.6989 M 12.8475 20.9488 C 13.4179 18.6984 14.3367 17.1512 15.0147 16.0418 M 10.4855 20.6989 C 10.3381 21.1401 9.90031 21.8903 9.32798 21.3608 C 8.84045 20.9097 8.51903 19.9599 8.18966 19.1825 M 10.4855 20.6989 C 10.6474 20.405 10.8958 19.7114 10.5935 19.2872 C 10.7802 19.33 11.1827 19.3014 11.2987 18.8448 C 11.4148 18.3882 11.2976 18.2741 11.2245 18.2741 C 11.3741 18.2651 11.6733 18.0856 11.6733 17.4399 C 11.8837 17.2103 12.2726 16.6632 12.1458 16.312 M 15.0147 16.0418 C 15.3669 15.4656 15.6541 15.0074 15.7937 14.6302 C 16.3336 13.1713 16.6058 9.92024 16.6745 8.47709 C 17.5552 6.18065 20.5923 7.32549 21.8747 8.00091 C 23.157 8.67634 25.3201 8.88234 26.1334 8.8148 C 26.9467 8.74726 29.7813 10.0306 30.0513 10.7735 C 30.1151 10.9491 30.0581 11.2117 29.9213 11.5165 M 15.0147 16.0418 C 14.2923 15.372 12.4466 13.9277 10.8432 13.509 C 8.83888 12.9855 7.15475 17.5852 7.70481 18.2741 C 7.88001 18.4935 8.03571 18.8192 8.18966 19.1825 M 8.18966 19.1825 C 8.41049 18.6253 8.94733 17.602 9.32798 17.9668 C 9.50121 17.1675 10.0967 15.363 11.0929 14.539 M 29.9213 11.5165 C 29.3629 11.5334 28.1359 11.4496 27.6959 10.9795 M 27.6959 10.9795 C 27.6745 10.7915 27.602 10.3514 27.4833 10.0947 M 27.6959 10.9795 C 27.7268 11.3048 27.618 11.7456 27.4833 12.1356 M 27.4833 12.1356 C 27.383 12.4259 27.2684 12.6881 27.1863 12.8538 C 27.2785 12.9292 27.4995 13.1449 27.7397 13.2422 M 27.4833 12.1356 C 27.6655 12.2186 28.1062 12.4053 28.4113 12.4891 M 17.0991 0.740234 C 26.3507 0.740234 33.8505 8.79911 33.8505 18.7402 C 33.8505 28.6814 26.3507 36.7402 17.0991 36.7402 C 7.84753 36.7402 0.347656 28.6814 0.347655 18.7402 C 0.347655 8.79911 7.84753 0.740235 17.0991 0.740234 Z" stroke-linecap="round"/>
</g>
</g>
</g>
</svg>